<svg xmlns="http://www.w3.org/2000/svg" xmlns:xlink="http://www.w3.org/1999/xlink" width="500" zoomAndPan="magnify" viewBox="0 0 375 374.999991" height="500" preserveAspectRatio="xMidYMid meet" version="1.0"><defs><clipPath id="d11efc6c3b"><path d="M 112.5 256.945312 L 117.75 256.945312 L 117.75 262.195312 L 112.5 262.195312 Z M 112.5 256.945312 " clip-rule="nonzero"/></clipPath><clipPath id="b6cbaa888f"><path d="M 309 187 L 320.503906 187 L 320.503906 227 L 309 227 Z M 309 187 " clip-rule="nonzero"/></clipPath><clipPath id="788c30fb39"><path d="M 54.253906 55 L 254 55 L 254 320.503906 L 54.253906 320.503906 Z M 54.253906 55 " clip-rule="nonzero"/></clipPath><clipPath id="e82dc2a638"><path d="M 59 54.253906 L 275 54.253906 L 275 144 L 59 144 Z M 59 54.253906 " clip-rule="nonzero"/></clipPath><clipPath id="19e6be5905"><path d="M 142 148 L 320.503906 148 L 320.503906 227 L 142 227 Z M 142 148 " clip-rule="nonzero"/></clipPath></defs><g clip-path="url(#d11efc6c3b)"><path fill="#20e5f6" d="M 112.824219 261.449219 C 112.824219 261.410156 112.792969 261.378906 112.753906 261.378906 C 112.714844 261.378906 112.683594 261.410156 112.683594 261.449219 C 112.683594 261.484375 112.710938 261.511719 112.742188 261.515625 L 112.742188 261.875 C 112.742188 261.878906 112.742188 261.882812 112.746094 261.882812 L 113 262.136719 C 113 262.140625 113.003906 262.140625 113.007812 262.140625 L 114.417969 262.140625 C 114.421875 262.140625 114.425781 262.136719 114.425781 262.136719 L 114.859375 261.703125 L 116.09375 261.703125 C 116.097656 261.722656 116.117188 261.738281 116.136719 261.738281 C 116.164062 261.738281 116.183594 261.71875 116.183594 261.691406 C 116.183594 261.667969 116.164062 261.644531 116.136719 261.644531 C 116.117188 261.644531 116.097656 261.660156 116.09375 261.679688 L 114.855469 261.679688 C 114.851562 261.679688 114.847656 261.679688 114.847656 261.683594 C 114.847656 261.683594 114.84375 261.683594 114.84375 261.683594 L 114.414062 262.117188 L 113.011719 262.117188 L 112.765625 261.871094 L 112.765625 261.519531 C 112.800781 261.511719 112.824219 261.484375 112.824219 261.449219 M 115.382812 261.574219 C 115.421875 261.574219 115.453125 261.542969 115.453125 261.503906 C 115.453125 261.46875 115.421875 261.433594 115.382812 261.433594 C 115.351562 261.433594 115.320312 261.460938 115.316406 261.492188 L 114.375 261.492188 C 114.371094 261.492188 114.367188 261.496094 114.367188 261.496094 L 113.945312 261.917969 L 113.183594 261.917969 L 112.988281 261.71875 L 112.988281 261.148438 L 113.746094 260.457031 C 113.746094 260.453125 113.75 260.449219 113.75 260.449219 L 113.75 259.488281 C 113.769531 259.484375 113.785156 259.464844 113.785156 259.445312 C 113.785156 259.417969 113.761719 259.394531 113.738281 259.394531 C 113.710938 259.394531 113.6875 259.417969 113.6875 259.445312 C 113.6875 259.464844 113.703125 259.484375 113.722656 259.488281 L 113.722656 260.441406 L 112.96875 261.132812 C 112.96875 261.132812 112.964844 261.136719 112.964844 261.140625 C 112.964844 261.140625 112.964844 261.140625 112.964844 261.144531 L 112.964844 261.722656 C 112.964844 261.726562 112.964844 261.726562 112.964844 261.730469 C 112.96875 261.730469 112.96875 261.730469 112.96875 261.734375 L 113.171875 261.9375 C 113.175781 261.9375 113.175781 261.941406 113.179688 261.941406 L 113.949219 261.941406 C 113.953125 261.941406 113.957031 261.941406 113.957031 261.9375 C 113.960938 261.9375 113.960938 261.9375 113.960938 261.9375 L 114.378906 261.515625 L 115.316406 261.515625 C 115.320312 261.550781 115.351562 261.574219 115.382812 261.574219 Z M 113.566406 259.929688 C 113.601562 259.949219 113.640625 259.9375 113.660156 259.902344 C 113.679688 259.871094 113.667969 259.828125 113.636719 259.808594 C 113.605469 259.789062 113.570312 259.796875 113.546875 259.824219 L 113.511719 259.800781 L 113.511719 259.316406 C 113.53125 259.3125 113.546875 259.292969 113.546875 259.269531 C 113.546875 259.246094 113.523438 259.222656 113.5 259.222656 C 113.472656 259.222656 113.453125 259.246094 113.453125 259.269531 C 113.453125 259.292969 113.464844 259.3125 113.488281 259.316406 L 113.488281 259.808594 C 113.488281 259.8125 113.488281 259.816406 113.492188 259.816406 C 113.492188 259.816406 113.492188 259.820312 113.492188 259.820312 L 113.535156 259.84375 C 113.523438 259.875 113.535156 259.910156 113.566406 259.929688 Z M 113.171875 261.640625 C 113.171875 261.679688 113.203125 261.710938 113.242188 261.710938 C 113.28125 261.710938 113.3125 261.679688 113.3125 261.640625 C 113.3125 261.605469 113.285156 261.578125 113.253906 261.570312 L 113.253906 261.226562 L 114.03125 260.449219 C 114.035156 260.445312 114.035156 260.441406 114.035156 260.4375 L 114.035156 260.136719 C 114.054688 260.132812 114.070312 260.113281 114.070312 260.089844 C 114.070312 260.066406 114.050781 260.042969 114.023438 260.042969 C 113.996094 260.042969 113.976562 260.066406 113.976562 260.089844 C 113.976562 260.113281 113.992188 260.132812 114.011719 260.136719 L 114.011719 260.433594 L 113.234375 261.210938 C 113.230469 261.214844 113.230469 261.214844 113.230469 261.21875 C 113.230469 261.21875 113.230469 261.21875 113.230469 261.222656 L 113.230469 261.570312 C 113.195312 261.578125 113.171875 261.605469 113.171875 261.640625 Z M 112.800781 260.433594 C 112.800781 260.472656 112.832031 260.503906 112.871094 260.503906 C 112.910156 260.503906 112.941406 260.472656 112.941406 260.433594 C 112.941406 260.402344 112.917969 260.371094 112.882812 260.367188 L 112.882812 257.035156 C 112.902344 257.03125 112.917969 257.011719 112.917969 256.992188 C 112.917969 256.964844 112.898438 256.945312 112.871094 256.945312 C 112.847656 256.945312 112.824219 256.964844 112.824219 256.992188 C 112.824219 257.011719 112.839844 257.03125 112.859375 257.035156 L 112.859375 260.367188 C 112.828125 260.371094 112.800781 260.402344 112.800781 260.433594 Z M 114.960938 261.839844 C 114.921875 261.839844 114.890625 261.871094 114.890625 261.910156 C 114.890625 261.949219 114.921875 261.980469 114.960938 261.980469 C 114.996094 261.980469 115.027344 261.953125 115.03125 261.921875 L 117.65625 261.921875 C 117.660156 261.941406 117.679688 261.957031 117.703125 261.957031 C 117.726562 261.957031 117.75 261.9375 117.75 261.910156 C 117.75 261.882812 117.726562 261.863281 117.703125 261.863281 C 117.679688 261.863281 117.660156 261.878906 117.65625 261.898438 L 115.03125 261.898438 C 115.027344 261.863281 114.996094 261.839844 114.960938 261.839844 Z M 116.074219 261.023438 C 116.054688 260.992188 116.011719 260.980469 115.980469 261 C 115.960938 261.011719 115.949219 261.027344 115.945312 261.046875 L 115.023438 261.046875 C 115.019531 261.046875 115.015625 261.046875 115.011719 261.050781 C 115.011719 261.050781 115.011719 261.054688 115.011719 261.054688 L 114.882812 261.273438 L 114.308594 261.273438 C 114.304688 261.273438 114.300781 261.273438 114.300781 261.277344 C 114.296875 261.277344 114.296875 261.277344 114.296875 261.277344 L 113.875 261.699219 L 113.507812 261.699219 L 113.507812 261.347656 C 113.542969 261.339844 113.566406 261.3125 113.566406 261.277344 C 113.566406 261.238281 113.535156 261.207031 113.496094 261.207031 C 113.457031 261.207031 113.425781 261.238281 113.425781 261.277344 C 113.425781 261.3125 113.453125 261.339844 113.484375 261.347656 L 113.484375 261.710938 C 113.484375 261.71875 113.492188 261.722656 113.496094 261.722656 L 113.878906 261.722656 C 113.882812 261.722656 113.886719 261.722656 113.890625 261.71875 L 114.308594 261.296875 L 114.890625 261.296875 C 114.894531 261.296875 114.898438 261.296875 114.902344 261.292969 L 115.027344 261.070312 L 115.945312 261.070312 C 115.945312 261.078125 115.949219 261.085938 115.953125 261.09375 C 115.96875 261.125 116.007812 261.136719 116.039062 261.125 L 116.207031 261.421875 C 116.210938 261.425781 116.214844 261.425781 116.21875 261.425781 L 116.863281 261.425781 C 116.867188 261.449219 116.886719 261.464844 116.910156 261.464844 C 116.933594 261.464844 116.957031 261.441406 116.957031 261.414062 C 116.957031 261.390625 116.933594 261.367188 116.910156 261.367188 C 116.886719 261.367188 116.867188 261.382812 116.863281 261.402344 L 116.226562 261.402344 L 116.058594 261.113281 C 116.085938 261.09375 116.089844 261.054688 116.074219 261.023438 Z M 112.5 262.125 C 112.5 262.164062 112.53125 262.195312 112.570312 262.195312 C 112.609375 262.195312 112.640625 262.164062 112.640625 262.125 C 112.640625 262.089844 112.613281 262.0625 112.582031 262.054688 L 112.582031 261.054688 L 113.183594 260.539062 C 113.183594 260.535156 113.1875 260.535156 113.1875 260.53125 L 113.1875 259.113281 C 113.199219 259.113281 113.214844 259.105469 113.222656 259.09375 C 113.25 259.070312 113.25 259.03125 113.230469 259.003906 L 113.585938 258.652344 C 113.585938 258.648438 113.585938 258.648438 113.585938 258.644531 L 113.585938 258.035156 C 113.609375 258.03125 113.621094 258.011719 113.621094 257.988281 C 113.621094 257.964844 113.601562 257.941406 113.574219 257.941406 C 113.550781 257.941406 113.527344 257.964844 113.527344 257.988281 C 113.527344 258.011719 113.542969 258.03125 113.5625 258.035156 L 113.5625 258.640625 L 113.214844 258.988281 C 113.1875 258.96875 113.148438 258.972656 113.125 258.996094 C 113.097656 259.023438 113.097656 259.066406 113.125 259.09375 C 113.136719 259.105469 113.148438 259.113281 113.164062 259.113281 L 113.164062 260.523438 L 112.5625 261.039062 C 112.558594 261.042969 112.558594 261.042969 112.558594 261.046875 C 112.558594 261.046875 112.558594 261.050781 112.558594 261.050781 L 112.558594 262.054688 C 112.523438 262.0625 112.5 262.089844 112.5 262.125 Z M 112.5 262.125 " fill-opacity="1" fill-rule="nonzero"/></g><g clip-path="url(#b6cbaa888f)"><path fill="#000000" d="M 309.410156 187.378906 L 320.503906 187.378906 L 320.503906 226.207031 L 309.410156 226.207031 Z M 309.410156 187.378906 " fill-opacity="1" fill-rule="nonzero"/></g><g clip-path="url(#788c30fb39)"><path fill="#000000" d="M 237.300781 320.503906 L 70.894531 320.503906 C 70.347656 320.503906 69.804688 320.476562 69.261719 320.421875 C 68.71875 320.371094 68.183594 320.289062 67.648438 320.183594 C 67.113281 320.078125 66.585938 319.945312 66.0625 319.785156 C 65.542969 319.628906 65.03125 319.445312 64.527344 319.238281 C 64.023438 319.027344 63.53125 318.796875 63.050781 318.539062 C 62.570312 318.28125 62.101562 318 61.648438 317.699219 C 61.195312 317.394531 60.757812 317.070312 60.335938 316.726562 C 59.917969 316.378906 59.511719 316.015625 59.128906 315.628906 C 58.742188 315.242188 58.375 314.839844 58.03125 314.417969 C 57.683594 314 57.359375 313.5625 57.058594 313.109375 C 56.753906 312.65625 56.476562 312.1875 56.21875 311.707031 C 55.960938 311.226562 55.730469 310.734375 55.519531 310.230469 C 55.3125 309.726562 55.128906 309.214844 54.96875 308.691406 C 54.8125 308.171875 54.679688 307.644531 54.574219 307.109375 C 54.46875 306.574219 54.386719 306.035156 54.332031 305.492188 C 54.28125 304.953125 54.253906 304.40625 54.253906 303.863281 L 54.253906 93.082031 C 54.253906 92.347656 54.394531 91.636719 54.675781 90.960938 C 54.957031 90.28125 55.359375 89.679688 55.878906 89.160156 L 89.160156 55.878906 L 97.003906 63.722656 L 65.347656 95.378906 L 65.347656 303.863281 C 65.347656 304.226562 65.382812 304.585938 65.453125 304.945312 C 65.523438 305.300781 65.628906 305.648438 65.769531 305.984375 C 65.910156 306.320312 66.078125 306.640625 66.28125 306.945312 C 66.484375 307.246094 66.714844 307.527344 66.972656 307.785156 C 67.230469 308.042969 67.507812 308.273438 67.8125 308.476562 C 68.117188 308.675781 68.433594 308.847656 68.769531 308.988281 C 69.109375 309.125 69.453125 309.230469 69.8125 309.304688 C 70.167969 309.375 70.53125 309.410156 70.894531 309.410156 L 237.300781 309.410156 C 237.664062 309.410156 238.023438 309.375 238.382812 309.304688 C 238.738281 309.230469 239.085938 309.125 239.421875 308.988281 C 239.757812 308.847656 240.078125 308.675781 240.382812 308.476562 C 240.683594 308.273438 240.964844 308.042969 241.222656 307.785156 C 241.480469 307.527344 241.710938 307.246094 241.914062 306.945312 C 242.113281 306.640625 242.285156 306.320312 242.425781 305.984375 C 242.5625 305.648438 242.667969 305.300781 242.742188 304.945312 C 242.8125 304.585938 242.847656 304.226562 242.847656 303.863281 L 242.847656 292.769531 L 253.941406 292.769531 L 253.941406 303.863281 C 253.941406 304.40625 253.914062 304.953125 253.859375 305.492188 C 253.808594 306.035156 253.726562 306.574219 253.621094 307.109375 C 253.515625 307.644531 253.382812 308.171875 253.222656 308.691406 C 253.066406 309.214844 252.882812 309.726562 252.675781 310.230469 C 252.464844 310.734375 252.234375 311.226562 251.976562 311.707031 C 251.71875 312.1875 251.4375 312.65625 251.136719 313.109375 C 250.832031 313.5625 250.507812 314 250.164062 314.417969 C 249.816406 314.839844 249.453125 315.242188 249.066406 315.628906 C 248.683594 316.015625 248.277344 316.378906 247.855469 316.726562 C 247.4375 317.070312 247 317.394531 246.546875 317.699219 C 246.09375 318 245.625 318.28125 245.144531 318.539062 C 244.664062 318.796875 244.171875 319.027344 243.667969 319.238281 C 243.164062 319.445312 242.652344 319.628906 242.128906 319.785156 C 241.609375 319.945312 241.082031 320.078125 240.546875 320.183594 C 240.011719 320.289062 239.472656 320.371094 238.929688 320.421875 C 238.390625 320.476562 237.84375 320.503906 237.300781 320.503906 Z M 237.300781 320.503906 " fill-opacity="1" fill-rule="nonzero"/></g><g clip-path="url(#e82dc2a638)"><path fill="#000000" d="M 248.394531 143.003906 C 247.65625 143.003906 246.949219 142.867188 246.269531 142.582031 C 245.761719 142.371094 245.296875 142.09375 244.875 141.746094 C 244.449219 141.398438 244.085938 140.996094 243.78125 140.539062 C 243.476562 140.082031 243.246094 139.589844 243.085938 139.066406 C 242.925781 138.542969 242.847656 138.003906 242.847656 137.457031 L 242.847656 70.894531 C 242.847656 70.53125 242.8125 70.167969 242.742188 69.8125 C 242.667969 69.453125 242.5625 69.109375 242.425781 68.769531 C 242.285156 68.433594 242.113281 68.117188 241.914062 67.8125 C 241.710938 67.507812 241.480469 67.230469 241.222656 66.972656 C 240.964844 66.714844 240.683594 66.484375 240.382812 66.28125 C 240.078125 66.078125 239.757812 65.910156 239.421875 65.769531 C 239.085938 65.628906 238.738281 65.523438 238.382812 65.453125 C 238.023438 65.382812 237.664062 65.347656 237.300781 65.347656 L 98.628906 65.347656 L 98.628906 93.082031 C 98.628906 93.445312 98.59375 93.804688 98.523438 94.164062 C 98.449219 94.519531 98.34375 94.867188 98.207031 95.203125 C 98.066406 95.539062 97.894531 95.859375 97.695312 96.164062 C 97.492188 96.464844 97.261719 96.746094 97.003906 97.003906 C 96.746094 97.261719 96.464844 97.492188 96.164062 97.695312 C 95.859375 97.894531 95.539062 98.066406 95.203125 98.207031 C 94.867188 98.34375 94.519531 98.449219 94.164062 98.523438 C 93.804688 98.59375 93.445312 98.628906 93.082031 98.628906 L 59.800781 98.628906 L 59.800781 87.535156 L 87.535156 87.535156 L 87.535156 59.800781 C 87.535156 59.4375 87.570312 59.074219 87.640625 58.71875 C 87.710938 58.359375 87.816406 58.015625 87.957031 57.675781 C 88.097656 57.339844 88.265625 57.023438 88.46875 56.71875 C 88.671875 56.414062 88.902344 56.136719 89.160156 55.878906 C 89.417969 55.621094 89.695312 55.390625 90 55.1875 C 90.304688 54.984375 90.621094 54.816406 90.957031 54.675781 C 91.296875 54.535156 91.640625 54.429688 92 54.359375 C 92.355469 54.289062 92.71875 54.253906 93.082031 54.253906 L 237.300781 54.253906 C 237.84375 54.253906 238.390625 54.28125 238.929688 54.332031 C 239.472656 54.386719 240.011719 54.46875 240.546875 54.574219 C 241.082031 54.679688 241.609375 54.8125 242.128906 54.96875 C 242.652344 55.128906 243.164062 55.3125 243.667969 55.519531 C 244.171875 55.730469 244.664062 55.960938 245.144531 56.21875 C 245.625 56.476562 246.09375 56.753906 246.546875 57.058594 C 247 57.359375 247.4375 57.683594 247.855469 58.03125 C 248.277344 58.375 248.683594 58.742188 249.066406 59.128906 C 249.453125 59.511719 249.816406 59.917969 250.164062 60.335938 C 250.507812 60.757812 250.832031 61.195312 251.136719 61.648438 C 251.4375 62.101562 251.71875 62.570312 251.976562 63.050781 C 252.234375 63.53125 252.464844 64.023438 252.675781 64.527344 C 252.882812 65.03125 253.066406 65.542969 253.222656 66.0625 C 253.382812 66.585938 253.515625 67.113281 253.621094 67.648438 C 253.726562 68.183594 253.808594 68.71875 253.859375 69.261719 C 253.914062 69.804688 253.941406 70.347656 253.941406 70.894531 L 253.941406 124.066406 L 266.660156 111.347656 L 274.503906 119.191406 L 252.316406 141.378906 C 251.796875 141.898438 251.195312 142.300781 250.515625 142.582031 C 249.835938 142.863281 249.128906 143.003906 248.394531 143.003906 Z M 248.394531 143.003906 " fill-opacity="1" fill-rule="nonzero"/></g><path fill="#000000" d="M 287.222656 281.675781 L 176.285156 281.675781 C 175.921875 281.675781 175.558594 281.640625 175.203125 281.570312 C 174.84375 281.496094 174.5 281.390625 174.160156 281.253906 C 173.824219 281.113281 173.503906 280.941406 173.203125 280.742188 C 172.898438 280.539062 172.621094 280.308594 172.363281 280.050781 C 172.105469 279.792969 171.875 279.511719 171.671875 279.210938 C 171.46875 278.90625 171.300781 278.585938 171.160156 278.25 C 171.019531 277.914062 170.914062 277.566406 170.84375 277.210938 C 170.773438 276.851562 170.738281 276.492188 170.738281 276.128906 L 170.738281 215.113281 L 181.832031 215.113281 L 181.832031 270.582031 L 281.675781 270.582031 L 281.675781 215.113281 L 292.769531 215.113281 L 292.769531 276.128906 C 292.769531 276.492188 292.734375 276.851562 292.664062 277.210938 C 292.589844 277.566406 292.484375 277.914062 292.347656 278.25 C 292.207031 278.585938 292.035156 278.90625 291.835938 279.210938 C 291.632812 279.511719 291.402344 279.792969 291.144531 280.050781 C 290.886719 280.308594 290.605469 280.539062 290.304688 280.742188 C 290 280.941406 289.679688 281.113281 289.34375 281.253906 C 289.007812 281.390625 288.660156 281.496094 288.304688 281.570312 C 287.945312 281.640625 287.585938 281.675781 287.222656 281.675781 Z M 287.222656 281.675781 " fill-opacity="1" fill-rule="nonzero"/><g clip-path="url(#19e6be5905)"><path fill="#000000" d="M 231.753906 226.207031 C 231.039062 226.207031 230.351562 226.078125 229.691406 225.8125 L 146.488281 192.53125 C 145.972656 192.324219 145.496094 192.050781 145.066406 191.703125 C 144.632812 191.355469 144.261719 190.949219 143.949219 190.492188 C 143.636719 190.03125 143.398438 189.539062 143.238281 189.007812 C 143.074219 188.476562 142.992188 187.933594 142.992188 187.378906 C 142.992188 186.824219 143.074219 186.28125 143.238281 185.75 C 143.398438 185.21875 143.636719 184.726562 143.949219 184.265625 C 144.261719 183.804688 144.632812 183.402344 145.066406 183.054688 C 145.496094 182.707031 145.972656 182.429688 146.488281 182.226562 L 229.691406 148.945312 C 230.351562 148.679688 231.039062 148.550781 231.753906 148.550781 C 232.464844 148.550781 233.152344 148.679688 233.816406 148.945312 L 317.019531 182.226562 C 317.535156 182.429688 318.007812 182.707031 318.441406 183.054688 C 318.875 183.402344 319.246094 183.804688 319.558594 184.265625 C 319.871094 184.726562 320.105469 185.21875 320.269531 185.75 C 320.433594 186.28125 320.515625 186.824219 320.515625 187.378906 C 320.515625 187.933594 320.433594 188.476562 320.269531 189.007812 C 320.105469 189.539062 319.871094 190.03125 319.558594 190.492188 C 319.246094 190.949219 318.875 191.355469 318.441406 191.703125 C 318.007812 192.050781 317.535156 192.324219 317.019531 192.53125 L 233.816406 225.8125 C 233.15625 226.078125 232.464844 226.207031 231.753906 226.207031 Z M 163.488281 187.378906 L 231.753906 214.6875 L 300.019531 187.378906 L 231.753906 160.070312 Z M 163.488281 187.378906 " fill-opacity="1" fill-rule="nonzero"/></g><path fill="#000000" d="M 222.285156 119.191406 L 230.128906 111.347656 L 252.320312 133.535156 L 244.472656 141.382812 Z M 222.285156 119.191406 " fill-opacity="1" fill-rule="nonzero"/><path fill="#000000" d="M 148.550781 270.582031 L 159.644531 270.582031 L 159.644531 281.675781 L 148.550781 281.675781 Z M 148.550781 270.582031 " fill-opacity="1" fill-rule="nonzero"/><path fill="#000000" d="M 137.457031 281.675781 L 120.816406 281.675781 C 120.269531 281.675781 119.726562 281.648438 119.183594 281.59375 C 118.640625 281.542969 118.105469 281.460938 117.570312 281.355469 C 117.035156 281.25 116.507812 281.117188 115.984375 280.957031 C 115.464844 280.800781 114.953125 280.617188 114.449219 280.410156 C 113.945312 280.199219 113.453125 279.96875 112.972656 279.710938 C 112.492188 279.453125 112.023438 279.171875 111.570312 278.871094 C 111.117188 278.566406 110.679688 278.242188 110.257812 277.898438 C 109.839844 277.550781 109.433594 277.1875 109.050781 276.800781 C 108.664062 276.414062 108.296875 276.011719 107.953125 275.589844 C 107.605469 275.171875 107.28125 274.734375 106.980469 274.28125 C 106.675781 273.828125 106.398438 273.359375 106.140625 272.878906 C 105.882812 272.398438 105.652344 271.90625 105.441406 271.402344 C 105.234375 270.898438 105.050781 270.386719 104.890625 269.863281 C 104.734375 269.34375 104.601562 268.816406 104.496094 268.28125 C 104.390625 267.746094 104.308594 267.207031 104.253906 266.664062 C 104.203125 266.125 104.175781 265.578125 104.175781 265.035156 L 104.175781 226.207031 C 104.175781 225.65625 104.253906 225.121094 104.414062 224.597656 C 104.574219 224.070312 104.804688 223.582031 105.109375 223.125 C 105.414062 222.667969 105.78125 222.269531 106.203125 221.917969 C 106.628906 221.570312 107.09375 221.292969 107.601562 221.082031 C 108.105469 220.875 108.632812 220.742188 109.179688 220.6875 C 109.722656 220.632812 110.265625 220.660156 110.804688 220.765625 C 111.34375 220.875 111.851562 221.058594 112.335938 221.316406 C 112.820312 221.574219 113.257812 221.898438 113.644531 222.285156 L 135.832031 244.472656 L 127.988281 252.316406 L 115.269531 239.597656 L 115.269531 265.035156 C 115.269531 265.398438 115.304688 265.757812 115.375 266.117188 C 115.445312 266.472656 115.550781 266.820312 115.691406 267.15625 C 115.832031 267.492188 116 267.8125 116.203125 268.117188 C 116.40625 268.417969 116.636719 268.699219 116.894531 268.957031 C 117.152344 269.214844 117.429688 269.445312 117.734375 269.648438 C 118.039062 269.847656 118.355469 270.019531 118.691406 270.160156 C 119.03125 270.296875 119.375 270.402344 119.734375 270.476562 C 120.089844 270.546875 120.453125 270.582031 120.816406 270.582031 L 137.457031 270.582031 Z M 137.457031 281.675781 " fill-opacity="1" fill-rule="nonzero"/><path fill="#000000" d="M 83.613281 244.46875 L 105.800781 222.28125 L 113.648438 230.125 L 91.457031 252.316406 Z M 83.613281 244.46875 " fill-opacity="1" fill-rule="nonzero"/><path fill="#000000" d="M 81.988281 115.269531 L 143.003906 115.269531 L 143.003906 126.363281 L 81.988281 126.363281 Z M 81.988281 115.269531 " fill-opacity="1" fill-rule="nonzero"/><path fill="#000000" d="M 81.988281 137.457031 L 143.003906 137.457031 L 143.003906 148.550781 L 81.988281 148.550781 Z M 81.988281 137.457031 " fill-opacity="1" fill-rule="nonzero"/><path fill="#000000" d="M 81.988281 159.644531 L 143.003906 159.644531 L 143.003906 170.738281 L 81.988281 170.738281 Z M 81.988281 159.644531 " fill-opacity="1" fill-rule="nonzero"/><path fill="#000000" d="M 154.097656 115.269531 L 165.191406 115.269531 L 165.191406 126.363281 L 154.097656 126.363281 Z M 154.097656 115.269531 " fill-opacity="1" fill-rule="nonzero"/><path fill="#000000" d="M 154.097656 137.457031 L 165.191406 137.457031 L 165.191406 148.550781 L 154.097656 148.550781 Z M 154.097656 137.457031 " fill-opacity="1" fill-rule="nonzero"/></svg>