<svg xmlns="http://www.w3.org/2000/svg" xmlns:xlink="http://www.w3.org/1999/xlink" width="500" zoomAndPan="magnify" viewBox="0 0 375 374.999991" height="500" preserveAspectRatio="xMidYMid meet" version="1.0"><defs><clipPath id="cf9068de72"><path d="M 173 50.867188 L 202 50.867188 L 202 79 L 173 79 Z M 173 50.867188 " clip-rule="nonzero"/></clipPath><clipPath id="c88dc1a8bc"><path d="M 173 296 L 202 296 L 202 323.867188 L 173 323.867188 Z M 173 296 " clip-rule="nonzero"/></clipPath><clipPath id="11339d5a8e"><path d="M 296 173 L 323.867188 173 L 323.867188 202 L 296 202 Z M 296 173 " clip-rule="nonzero"/></clipPath><clipPath id="aa4ed67b15"><path d="M 50.867188 173 L 79 173 L 79 202 L 50.867188 202 Z M 50.867188 173 " clip-rule="nonzero"/></clipPath><clipPath id="29e102a09a"><path d="M 112.5 256.945312 L 117.75 256.945312 L 117.75 262.195312 L 112.5 262.195312 Z M 112.5 256.945312 " clip-rule="nonzero"/></clipPath></defs><path fill="#000000" d="M 187.367188 232.867188 C 212.457031 232.867188 232.867188 212.457031 232.867188 187.367188 C 232.867188 162.28125 212.457031 141.867188 187.367188 141.867188 C 162.28125 141.867188 141.867188 162.28125 141.867188 187.367188 C 141.867188 212.457031 162.28125 232.867188 187.367188 232.867188 Z M 187.367188 150.96875 C 207.4375 150.96875 223.769531 167.296875 223.769531 187.367188 C 223.769531 207.4375 207.4375 223.769531 187.367188 223.769531 C 167.296875 223.769531 150.96875 207.4375 150.96875 187.367188 C 150.96875 167.296875 167.296875 150.96875 187.367188 150.96875 Z M 187.367188 150.96875 " fill-opacity="1" fill-rule="nonzero"/><path fill="#000000" d="M 145.542969 119.804688 C 144.6875 118.949219 143.539062 118.472656 142.328125 118.472656 C 141.117188 118.472656 139.960938 118.949219 139.109375 119.804688 L 119.804688 139.109375 C 118.949219 139.964844 118.472656 141.121094 118.472656 142.328125 C 118.472656 143.535156 118.949219 144.695312 119.804688 145.542969 L 128.023438 153.757812 C 125.25 158.636719 123.105469 163.792969 121.617188 169.167969 L 110.019531 169.167969 C 107.5 169.167969 105.46875 171.207031 105.46875 173.71875 L 105.46875 201.019531 C 105.46875 203.53125 107.5 205.566406 110.019531 205.566406 L 121.613281 205.566406 C 123.097656 210.949219 125.242188 216.113281 128.007812 220.988281 L 119.800781 229.195312 C 118.945312 230.050781 118.46875 231.207031 118.46875 232.414062 C 118.46875 233.617188 118.945312 234.777344 119.800781 235.628906 L 139.105469 254.9375 C 140.886719 256.714844 143.761719 256.714844 145.539062 254.9375 L 153.75 246.730469 C 158.621094 249.503906 163.785156 251.644531 169.167969 253.128906 L 169.167969 264.71875 C 169.167969 267.230469 171.203125 269.269531 173.71875 269.269531 L 201.019531 269.269531 C 203.535156 269.269531 205.566406 267.230469 205.566406 264.71875 L 205.566406 253.125 C 210.941406 251.636719 216.101562 249.492188 220.984375 246.71875 L 229.195312 254.929688 C 230.050781 255.785156 231.203125 256.265625 232.414062 256.265625 C 233.625 256.265625 234.777344 255.785156 235.628906 254.929688 L 254.9375 235.625 C 255.789062 234.769531 256.269531 233.613281 256.269531 232.410156 C 256.269531 231.203125 255.789062 230.042969 254.9375 229.191406 L 246.71875 220.980469 C 249.488281 216.101562 251.636719 210.941406 253.125 205.566406 L 264.71875 205.566406 C 267.234375 205.566406 269.269531 203.53125 269.269531 201.019531 L 269.269531 173.71875 C 269.269531 171.207031 267.234375 169.167969 264.71875 169.167969 L 253.125 169.167969 C 251.636719 163.785156 249.492188 158.621094 246.726562 153.75 L 254.9375 145.539062 C 255.789062 144.683594 256.269531 143.527344 256.269531 142.324219 C 256.269531 141.117188 255.789062 139.957031 254.9375 139.105469 L 235.628906 119.800781 C 233.851562 118.019531 230.976562 118.019531 229.195312 119.800781 L 220.988281 128.003906 C 216.113281 125.234375 210.949219 123.089844 205.566406 121.605469 L 205.566406 110.019531 C 205.566406 107.507812 203.535156 105.46875 201.019531 105.46875 L 173.71875 105.46875 C 171.203125 105.46875 169.167969 107.507812 169.167969 110.019531 L 169.167969 121.613281 C 163.792969 123.097656 158.636719 125.242188 153.753906 128.019531 Z M 174.691406 129.613281 C 176.78125 129.160156 178.269531 127.308594 178.269531 125.167969 L 178.269531 114.566406 L 196.46875 114.566406 L 196.46875 125.167969 C 196.46875 127.308594 197.957031 129.15625 200.042969 129.613281 C 206.859375 131.105469 213.3125 133.78125 219.226562 137.578125 C 221.023438 138.730469 223.382812 138.476562 224.902344 136.964844 L 232.410156 129.457031 L 245.28125 142.328125 L 237.773438 149.835938 C 236.261719 151.34375 236.003906 153.707031 237.160156 155.507812 C 240.949219 161.417969 243.628906 167.875 245.121094 174.695312 C 245.582031 176.78125 247.429688 178.269531 249.566406 178.269531 L 260.167969 178.269531 L 260.167969 196.46875 L 249.566406 196.46875 C 247.429688 196.46875 245.582031 197.957031 245.121094 200.042969 C 243.628906 206.847656 240.949219 213.296875 237.148438 219.21875 C 235.992188 221.019531 236.253906 223.382812 237.765625 224.890625 L 245.28125 232.410156 L 232.410156 245.28125 L 224.894531 237.765625 C 223.382812 236.25 221.019531 236 219.222656 237.148438 C 213.296875 240.949219 206.847656 243.632812 200.042969 245.117188 C 197.957031 245.578125 196.46875 247.429688 196.46875 249.566406 L 196.46875 260.167969 L 178.269531 260.167969 L 178.269531 249.566406 C 178.269531 247.429688 176.78125 245.582031 174.691406 245.121094 C 167.875 243.628906 161.425781 240.953125 155.507812 237.160156 C 153.707031 236.003906 151.351562 236.253906 149.835938 237.773438 L 142.328125 245.28125 L 129.457031 232.410156 L 136.964844 224.902344 C 138.472656 223.390625 138.734375 221.027344 137.578125 219.226562 C 133.789062 213.316406 131.105469 206.859375 129.613281 200.039062 C 129.15625 197.957031 127.308594 196.46875 125.167969 196.46875 L 114.566406 196.46875 L 114.566406 178.269531 L 125.167969 178.269531 C 127.308594 178.269531 129.15625 176.78125 129.613281 174.691406 C 131.105469 167.890625 133.789062 161.4375 137.585938 155.519531 C 138.742188 153.714844 138.484375 151.355469 136.972656 149.84375 L 129.457031 142.328125 L 142.328125 129.457031 L 149.839844 136.972656 C 151.359375 138.492188 153.722656 138.738281 155.511719 137.585938 C 161.4375 133.78125 167.890625 131.101562 174.691406 129.613281 Z M 174.691406 129.613281 " fill-opacity="1" fill-rule="nonzero"/><g clip-path="url(#cf9068de72)"><path fill="#000000" d="M 187.367188 78.167969 C 194.894531 78.167969 201.019531 72.042969 201.019531 64.519531 C 201.019531 56.992188 194.894531 50.867188 187.367188 50.867188 C 179.84375 50.867188 173.71875 56.992188 173.71875 64.519531 C 173.71875 72.042969 179.84375 78.167969 187.367188 78.167969 Z M 187.367188 59.96875 C 189.878906 59.96875 191.917969 62.011719 191.917969 64.519531 C 191.917969 67.023438 189.878906 69.066406 187.367188 69.066406 C 184.855469 69.066406 182.816406 67.023438 182.816406 64.519531 C 182.816406 62.011719 184.855469 59.96875 187.367188 59.96875 Z M 187.367188 59.96875 " fill-opacity="1" fill-rule="nonzero"/></g><g clip-path="url(#c88dc1a8bc)"><path fill="#000000" d="M 187.367188 296.566406 C 179.84375 296.566406 173.71875 302.691406 173.71875 310.21875 C 173.71875 317.742188 179.84375 323.867188 187.367188 323.867188 C 194.894531 323.867188 201.019531 317.742188 201.019531 310.21875 C 201.019531 302.691406 194.894531 296.566406 187.367188 296.566406 Z M 187.367188 314.769531 C 184.855469 314.769531 182.816406 312.726562 182.816406 310.21875 C 182.816406 307.710938 184.855469 305.667969 187.367188 305.667969 C 189.878906 305.667969 191.917969 307.710938 191.917969 310.21875 C 191.917969 312.726562 189.878906 314.769531 187.367188 314.769531 Z M 187.367188 314.769531 " fill-opacity="1" fill-rule="nonzero"/></g><g clip-path="url(#11339d5a8e)"><path fill="#000000" d="M 310.21875 173.71875 C 302.691406 173.71875 296.566406 179.84375 296.566406 187.367188 C 296.566406 194.894531 302.691406 201.019531 310.21875 201.019531 C 317.742188 201.019531 323.867188 194.894531 323.867188 187.367188 C 323.867188 179.84375 317.742188 173.71875 310.21875 173.71875 Z M 310.21875 191.917969 C 307.707031 191.917969 305.667969 189.875 305.667969 187.367188 C 305.667969 184.859375 307.707031 182.816406 310.21875 182.816406 C 312.730469 182.816406 314.769531 184.859375 314.769531 187.367188 C 314.769531 189.875 312.730469 191.917969 310.21875 191.917969 Z M 310.21875 191.917969 " fill-opacity="1" fill-rule="nonzero"/></g><g clip-path="url(#aa4ed67b15)"><path fill="#000000" d="M 64.519531 201.019531 C 72.042969 201.019531 78.167969 194.894531 78.167969 187.367188 C 78.167969 179.84375 72.042969 173.71875 64.519531 173.71875 C 56.992188 173.71875 50.867188 179.84375 50.867188 187.367188 C 50.867188 194.894531 56.992188 201.019531 64.519531 201.019531 Z M 64.519531 182.816406 C 67.03125 182.816406 69.066406 184.859375 69.066406 187.367188 C 69.066406 189.875 67.03125 191.917969 64.519531 191.917969 C 62.007812 191.917969 59.96875 189.875 59.96875 187.367188 C 59.96875 184.859375 62.007812 182.816406 64.519531 182.816406 Z M 64.519531 182.816406 " fill-opacity="1" fill-rule="nonzero"/></g><path fill="#000000" d="M 129.917969 84.011719 L 133 93.253906 C 133.496094 94.753906 134.734375 95.882812 136.273438 96.246094 C 136.621094 96.328125 136.972656 96.367188 137.316406 96.367188 C 138.511719 96.367188 139.675781 95.898438 140.535156 95.035156 L 163.285156 72.285156 C 164.503906 71.066406 164.925781 69.265625 164.382812 67.628906 C 163.839844 65.996094 162.414062 64.808594 160.710938 64.566406 L 128.859375 60.019531 C 127.277344 59.789062 125.730469 60.394531 124.722656 61.605469 C 123.710938 62.816406 123.398438 64.464844 123.898438 65.960938 L 127 75.257812 C 93.324219 93.445312 69.1875 126.230469 62.152344 163.78125 L 71.09375 165.457031 C 77.53125 131.113281 99.371094 101.050781 129.917969 84.011719 Z M 150.417969 72.285156 L 139.3125 83.394531 L 134.859375 70.066406 Z M 150.417969 72.285156 " fill-opacity="1" fill-rule="nonzero"/><path fill="#000000" d="M 312.59375 210.960938 L 303.652344 209.28125 C 297.199219 243.652344 275.355469 273.71875 244.8125 290.730469 L 241.726562 281.480469 C 241.230469 279.984375 239.992188 278.855469 238.457031 278.492188 C 236.921875 278.121094 235.3125 278.585938 234.191406 279.703125 L 211.441406 302.453125 C 210.222656 303.671875 209.800781 305.472656 210.34375 307.105469 C 210.886719 308.738281 212.3125 309.925781 214.015625 310.167969 L 245.867188 314.71875 C 246.089844 314.753906 246.304688 314.769531 246.519531 314.769531 C 247.855469 314.769531 249.140625 314.175781 250.011719 313.132812 C 251.027344 311.925781 251.335938 310.277344 250.835938 308.78125 L 247.738281 299.484375 C 281.402344 281.316406 305.546875 248.535156 312.59375 210.960938 Z M 224.320312 302.453125 L 235.425781 291.339844 L 239.875 304.671875 Z M 224.320312 302.453125 " fill-opacity="1" fill-rule="nonzero"/><path fill="#000000" d="M 290.730469 129.914062 L 281.476562 133 C 279.980469 133.5 278.851562 134.738281 278.488281 136.273438 C 278.125 137.804688 278.582031 139.421875 279.703125 140.535156 L 302.453125 163.285156 C 303.316406 164.152344 304.480469 164.617188 305.667969 164.617188 C 306.144531 164.617188 306.636719 164.539062 307.105469 164.386719 C 308.738281 163.839844 309.925781 162.421875 310.171875 160.714844 L 314.722656 128.863281 C 314.945312 127.304688 314.34375 125.734375 313.128906 124.726562 C 311.914062 123.71875 310.269531 123.417969 308.777344 123.90625 L 299.484375 127.003906 C 281.367188 93.347656 248.582031 69.210938 210.960938 62.136719 L 209.28125 71.082031 C 243.695312 77.550781 273.757812 99.394531 290.730469 129.914062 Z M 302.453125 150.417969 L 291.34375 139.304688 L 304.675781 134.859375 Z M 302.453125 150.417969 " fill-opacity="1" fill-rule="nonzero"/><path fill="#000000" d="M 96.25 238.464844 C 96.609375 236.929688 96.152344 235.316406 95.035156 234.203125 L 72.285156 211.453125 C 71.066406 210.226562 69.269531 209.804688 67.628906 210.351562 C 65.996094 210.894531 64.808594 212.316406 64.5625 214.023438 L 60.011719 245.871094 C 59.789062 247.433594 60.390625 249.003906 61.605469 250.007812 C 62.433594 250.703125 63.472656 251.066406 64.519531 251.066406 C 65 251.066406 65.488281 250.992188 65.957031 250.835938 L 75.246094 247.738281 C 93.390625 281.4375 126.179688 305.578125 163.78125 312.597656 L 165.449219 303.652344 C 131.050781 297.230469 100.992188 275.386719 84 244.816406 L 93.253906 241.730469 C 94.757812 241.234375 95.886719 239.996094 96.25 238.464844 Z M 72.285156 224.320312 L 83.390625 235.429688 L 70.058594 239.875 Z M 72.285156 224.320312 " fill-opacity="1" fill-rule="nonzero"/><g clip-path="url(#29e102a09a)"><path fill="#20e5f6" d="M 112.824219 261.449219 C 112.824219 261.410156 112.792969 261.378906 112.753906 261.378906 C 112.714844 261.378906 112.683594 261.410156 112.683594 261.449219 C 112.683594 261.484375 112.710938 261.511719 112.742188 261.515625 L 112.742188 261.875 C 112.742188 261.878906 112.742188 261.882812 112.746094 261.882812 L 113 262.136719 C 113 262.140625 113.003906 262.140625 113.007812 262.140625 L 114.417969 262.140625 C 114.421875 262.140625 114.425781 262.136719 114.425781 262.136719 L 114.859375 261.703125 L 116.09375 261.703125 C 116.097656 261.722656 116.117188 261.738281 116.136719 261.738281 C 116.164062 261.738281 116.183594 261.71875 116.183594 261.691406 C 116.183594 261.667969 116.164062 261.644531 116.136719 261.644531 C 116.117188 261.644531 116.097656 261.660156 116.09375 261.679688 L 114.855469 261.679688 C 114.851562 261.679688 114.847656 261.679688 114.847656 261.683594 C 114.847656 261.683594 114.84375 261.683594 114.84375 261.683594 L 114.414062 262.117188 L 113.011719 262.117188 L 112.765625 261.871094 L 112.765625 261.519531 C 112.800781 261.511719 112.824219 261.484375 112.824219 261.449219 M 115.382812 261.574219 C 115.421875 261.574219 115.453125 261.542969 115.453125 261.503906 C 115.453125 261.46875 115.421875 261.433594 115.382812 261.433594 C 115.351562 261.433594 115.320312 261.460938 115.316406 261.492188 L 114.375 261.492188 C 114.371094 261.492188 114.367188 261.496094 114.367188 261.496094 L 113.945312 261.917969 L 113.183594 261.917969 L 112.988281 261.71875 L 112.988281 261.148438 L 113.746094 260.457031 C 113.746094 260.453125 113.75 260.449219 113.75 260.449219 L 113.75 259.488281 C 113.769531 259.484375 113.785156 259.464844 113.785156 259.445312 C 113.785156 259.417969 113.761719 259.394531 113.738281 259.394531 C 113.710938 259.394531 113.6875 259.417969 113.6875 259.445312 C 113.6875 259.464844 113.703125 259.484375 113.722656 259.488281 L 113.722656 260.441406 L 112.96875 261.132812 C 112.96875 261.132812 112.964844 261.136719 112.964844 261.140625 C 112.964844 261.140625 112.964844 261.140625 112.964844 261.144531 L 112.964844 261.722656 C 112.964844 261.726562 112.964844 261.726562 112.964844 261.730469 C 112.96875 261.730469 112.96875 261.730469 112.96875 261.734375 L 113.171875 261.9375 C 113.175781 261.9375 113.175781 261.941406 113.179688 261.941406 L 113.949219 261.941406 C 113.953125 261.941406 113.957031 261.941406 113.957031 261.9375 C 113.960938 261.9375 113.960938 261.9375 113.960938 261.9375 L 114.378906 261.515625 L 115.316406 261.515625 C 115.320312 261.550781 115.351562 261.574219 115.382812 261.574219 Z M 113.566406 259.929688 C 113.601562 259.949219 113.640625 259.9375 113.660156 259.902344 C 113.679688 259.871094 113.667969 259.828125 113.636719 259.808594 C 113.605469 259.789062 113.570312 259.796875 113.546875 259.824219 L 113.511719 259.800781 L 113.511719 259.316406 C 113.53125 259.3125 113.546875 259.292969 113.546875 259.269531 C 113.546875 259.246094 113.523438 259.222656 113.5 259.222656 C 113.472656 259.222656 113.453125 259.246094 113.453125 259.269531 C 113.453125 259.292969 113.464844 259.3125 113.488281 259.316406 L 113.488281 259.808594 C 113.488281 259.8125 113.488281 259.816406 113.492188 259.816406 C 113.492188 259.816406 113.492188 259.820312 113.492188 259.820312 L 113.535156 259.84375 C 113.523438 259.875 113.535156 259.910156 113.566406 259.929688 Z M 113.171875 261.640625 C 113.171875 261.679688 113.203125 261.710938 113.242188 261.710938 C 113.28125 261.710938 113.3125 261.679688 113.3125 261.640625 C 113.3125 261.605469 113.285156 261.578125 113.253906 261.570312 L 113.253906 261.226562 L 114.03125 260.449219 C 114.035156 260.445312 114.035156 260.441406 114.035156 260.4375 L 114.035156 260.136719 C 114.054688 260.132812 114.070312 260.113281 114.070312 260.089844 C 114.070312 260.066406 114.050781 260.042969 114.023438 260.042969 C 113.996094 260.042969 113.976562 260.066406 113.976562 260.089844 C 113.976562 260.113281 113.992188 260.132812 114.011719 260.136719 L 114.011719 260.433594 L 113.234375 261.210938 C 113.230469 261.214844 113.230469 261.214844 113.230469 261.21875 C 113.230469 261.21875 113.230469 261.21875 113.230469 261.222656 L 113.230469 261.570312 C 113.195312 261.578125 113.171875 261.605469 113.171875 261.640625 Z M 112.800781 260.433594 C 112.800781 260.472656 112.832031 260.503906 112.871094 260.503906 C 112.910156 260.503906 112.941406 260.472656 112.941406 260.433594 C 112.941406 260.402344 112.917969 260.371094 112.882812 260.367188 L 112.882812 257.035156 C 112.902344 257.03125 112.917969 257.011719 112.917969 256.992188 C 112.917969 256.964844 112.898438 256.945312 112.871094 256.945312 C 112.847656 256.945312 112.824219 256.964844 112.824219 256.992188 C 112.824219 257.011719 112.839844 257.03125 112.859375 257.035156 L 112.859375 260.367188 C 112.828125 260.371094 112.800781 260.402344 112.800781 260.433594 Z M 114.960938 261.839844 C 114.921875 261.839844 114.890625 261.871094 114.890625 261.910156 C 114.890625 261.949219 114.921875 261.980469 114.960938 261.980469 C 114.996094 261.980469 115.027344 261.953125 115.03125 261.921875 L 117.65625 261.921875 C 117.660156 261.941406 117.679688 261.957031 117.703125 261.957031 C 117.726562 261.957031 117.75 261.9375 117.75 261.910156 C 117.75 261.882812 117.726562 261.863281 117.703125 261.863281 C 117.679688 261.863281 117.660156 261.878906 117.65625 261.898438 L 115.03125 261.898438 C 115.027344 261.863281 114.996094 261.839844 114.960938 261.839844 Z M 116.074219 261.023438 C 116.054688 260.992188 116.011719 260.980469 115.980469 261 C 115.960938 261.011719 115.949219 261.027344 115.945312 261.046875 L 115.023438 261.046875 C 115.019531 261.046875 115.015625 261.046875 115.011719 261.050781 C 115.011719 261.050781 115.011719 261.054688 115.011719 261.054688 L 114.882812 261.273438 L 114.308594 261.273438 C 114.304688 261.273438 114.300781 261.273438 114.300781 261.277344 C 114.296875 261.277344 114.296875 261.277344 114.296875 261.277344 L 113.875 261.699219 L 113.507812 261.699219 L 113.507812 261.347656 C 113.542969 261.339844 113.566406 261.3125 113.566406 261.277344 C 113.566406 261.238281 113.535156 261.207031 113.496094 261.207031 C 113.457031 261.207031 113.425781 261.238281 113.425781 261.277344 C 113.425781 261.3125 113.453125 261.339844 113.484375 261.347656 L 113.484375 261.710938 C 113.484375 261.71875 113.492188 261.722656 113.496094 261.722656 L 113.878906 261.722656 C 113.882812 261.722656 113.886719 261.722656 113.890625 261.71875 L 114.308594 261.296875 L 114.890625 261.296875 C 114.894531 261.296875 114.898438 261.296875 114.902344 261.292969 L 115.027344 261.070312 L 115.945312 261.070312 C 115.945312 261.078125 115.949219 261.085938 115.953125 261.09375 C 115.96875 261.125 116.007812 261.136719 116.039062 261.125 L 116.207031 261.421875 C 116.210938 261.425781 116.214844 261.425781 116.21875 261.425781 L 116.863281 261.425781 C 116.867188 261.449219 116.886719 261.464844 116.910156 261.464844 C 116.933594 261.464844 116.957031 261.441406 116.957031 261.414062 C 116.957031 261.390625 116.933594 261.367188 116.910156 261.367188 C 116.886719 261.367188 116.867188 261.382812 116.863281 261.402344 L 116.226562 261.402344 L 116.058594 261.113281 C 116.085938 261.09375 116.089844 261.054688 116.074219 261.023438 Z M 112.5 262.125 C 112.5 262.164062 112.53125 262.195312 112.570312 262.195312 C 112.609375 262.195312 112.640625 262.164062 112.640625 262.125 C 112.640625 262.089844 112.613281 262.0625 112.582031 262.054688 L 112.582031 261.054688 L 113.183594 260.539062 C 113.183594 260.535156 113.1875 260.535156 113.1875 260.53125 L 113.1875 259.113281 C 113.199219 259.113281 113.214844 259.105469 113.222656 259.09375 C 113.25 259.070312 113.25 259.03125 113.230469 259.003906 L 113.585938 258.652344 C 113.585938 258.648438 113.585938 258.648438 113.585938 258.644531 L 113.585938 258.035156 C 113.609375 258.03125 113.621094 258.011719 113.621094 257.988281 C 113.621094 257.964844 113.601562 257.941406 113.574219 257.941406 C 113.550781 257.941406 113.527344 257.964844 113.527344 257.988281 C 113.527344 258.011719 113.542969 258.03125 113.5625 258.035156 L 113.5625 258.640625 L 113.214844 258.988281 C 113.1875 258.96875 113.148438 258.972656 113.125 258.996094 C 113.097656 259.023438 113.097656 259.066406 113.125 259.09375 C 113.136719 259.105469 113.148438 259.113281 113.164062 259.113281 L 113.164062 260.523438 L 112.5625 261.039062 C 112.558594 261.042969 112.558594 261.042969 112.558594 261.046875 C 112.558594 261.046875 112.558594 261.050781 112.558594 261.050781 L 112.558594 262.054688 C 112.523438 262.0625 112.5 262.089844 112.5 262.125 Z M 112.5 262.125 " fill-opacity="1" fill-rule="nonzero"/></g></svg>