<svg xmlns="http://www.w3.org/2000/svg" xmlns:xlink="http://www.w3.org/1999/xlink" width="500" zoomAndPan="magnify" viewBox="0 0 375 374.999991" height="500" preserveAspectRatio="xMidYMid meet" version="1.0"><defs><clipPath id="30d76fcdeb"><path d="M 112.5 256.945312 L 117.75 256.945312 L 117.75 262.195312 L 112.5 262.195312 Z M 112.5 256.945312 " clip-rule="nonzero"/></clipPath><clipPath id="37d538cbea"><path d="M 61.109375 70.851562 L 322 70.851562 L 322 246 L 61.109375 246 Z M 61.109375 70.851562 " clip-rule="nonzero"/></clipPath><clipPath id="1eaa0c06a7"><path d="M 206 206 L 256 206 L 256 304.101562 L 206 304.101562 Z M 206 206 " clip-rule="nonzero"/></clipPath><clipPath id="bc778fb44c"><path d="M 274 177 L 323.609375 177 L 323.609375 304.101562 L 274 304.101562 Z M 274 177 " clip-rule="nonzero"/></clipPath><clipPath id="fa3d6b98ce"><path d="M 138 236 L 188 236 L 188 304.101562 L 138 304.101562 Z M 138 236 " clip-rule="nonzero"/></clipPath><clipPath id="b6b782b370"><path d="M 70 255 L 120 255 L 120 304.101562 L 70 304.101562 Z M 70 255 " clip-rule="nonzero"/></clipPath></defs><g clip-path="url(#30d76fcdeb)"><path fill="#20e5f6" d="M 112.824219 261.449219 C 112.824219 261.410156 112.792969 261.378906 112.753906 261.378906 C 112.714844 261.378906 112.683594 261.410156 112.683594 261.449219 C 112.683594 261.484375 112.710938 261.511719 112.742188 261.515625 L 112.742188 261.875 C 112.742188 261.878906 112.742188 261.882812 112.746094 261.882812 L 113 262.136719 C 113 262.140625 113.003906 262.140625 113.007812 262.140625 L 114.417969 262.140625 C 114.421875 262.140625 114.425781 262.136719 114.425781 262.136719 L 114.859375 261.703125 L 116.09375 261.703125 C 116.097656 261.722656 116.117188 261.738281 116.136719 261.738281 C 116.164062 261.738281 116.183594 261.71875 116.183594 261.691406 C 116.183594 261.667969 116.164062 261.644531 116.136719 261.644531 C 116.117188 261.644531 116.097656 261.660156 116.09375 261.679688 L 114.855469 261.679688 C 114.851562 261.679688 114.847656 261.679688 114.847656 261.683594 C 114.847656 261.683594 114.84375 261.683594 114.84375 261.683594 L 114.414062 262.117188 L 113.011719 262.117188 L 112.765625 261.871094 L 112.765625 261.519531 C 112.800781 261.511719 112.824219 261.484375 112.824219 261.449219 M 115.382812 261.574219 C 115.421875 261.574219 115.453125 261.542969 115.453125 261.503906 C 115.453125 261.46875 115.421875 261.433594 115.382812 261.433594 C 115.351562 261.433594 115.320312 261.460938 115.316406 261.492188 L 114.375 261.492188 C 114.371094 261.492188 114.367188 261.496094 114.367188 261.496094 L 113.945312 261.917969 L 113.183594 261.917969 L 112.988281 261.71875 L 112.988281 261.148438 L 113.746094 260.457031 C 113.746094 260.453125 113.75 260.449219 113.75 260.449219 L 113.75 259.488281 C 113.769531 259.484375 113.785156 259.464844 113.785156 259.445312 C 113.785156 259.417969 113.761719 259.394531 113.738281 259.394531 C 113.710938 259.394531 113.6875 259.417969 113.6875 259.445312 C 113.6875 259.464844 113.703125 259.484375 113.722656 259.488281 L 113.722656 260.441406 L 112.96875 261.132812 C 112.96875 261.132812 112.964844 261.136719 112.964844 261.140625 C 112.964844 261.140625 112.964844 261.140625 112.964844 261.144531 L 112.964844 261.722656 C 112.964844 261.726562 112.964844 261.726562 112.964844 261.730469 C 112.96875 261.730469 112.96875 261.730469 112.96875 261.734375 L 113.171875 261.9375 C 113.175781 261.9375 113.175781 261.941406 113.179688 261.941406 L 113.949219 261.941406 C 113.953125 261.941406 113.957031 261.941406 113.957031 261.9375 C 113.960938 261.9375 113.960938 261.9375 113.960938 261.9375 L 114.378906 261.515625 L 115.316406 261.515625 C 115.320312 261.550781 115.351562 261.574219 115.382812 261.574219 Z M 113.566406 259.929688 C 113.601562 259.949219 113.640625 259.9375 113.660156 259.902344 C 113.679688 259.871094 113.667969 259.828125 113.636719 259.808594 C 113.605469 259.789062 113.570312 259.796875 113.546875 259.824219 L 113.511719 259.800781 L 113.511719 259.316406 C 113.53125 259.3125 113.546875 259.292969 113.546875 259.269531 C 113.546875 259.246094 113.523438 259.222656 113.5 259.222656 C 113.472656 259.222656 113.453125 259.246094 113.453125 259.269531 C 113.453125 259.292969 113.464844 259.3125 113.488281 259.316406 L 113.488281 259.808594 C 113.488281 259.8125 113.488281 259.816406 113.492188 259.816406 C 113.492188 259.816406 113.492188 259.820312 113.492188 259.820312 L 113.535156 259.84375 C 113.523438 259.875 113.535156 259.910156 113.566406 259.929688 Z M 113.171875 261.640625 C 113.171875 261.679688 113.203125 261.710938 113.242188 261.710938 C 113.28125 261.710938 113.3125 261.679688 113.3125 261.640625 C 113.3125 261.605469 113.285156 261.578125 113.253906 261.570312 L 113.253906 261.226562 L 114.03125 260.449219 C 114.035156 260.445312 114.035156 260.441406 114.035156 260.4375 L 114.035156 260.136719 C 114.054688 260.132812 114.070312 260.113281 114.070312 260.089844 C 114.070312 260.066406 114.050781 260.042969 114.023438 260.042969 C 113.996094 260.042969 113.976562 260.066406 113.976562 260.089844 C 113.976562 260.113281 113.992188 260.132812 114.011719 260.136719 L 114.011719 260.433594 L 113.234375 261.210938 C 113.230469 261.214844 113.230469 261.214844 113.230469 261.21875 C 113.230469 261.21875 113.230469 261.21875 113.230469 261.222656 L 113.230469 261.570312 C 113.195312 261.578125 113.171875 261.605469 113.171875 261.640625 Z M 112.800781 260.433594 C 112.800781 260.472656 112.832031 260.503906 112.871094 260.503906 C 112.910156 260.503906 112.941406 260.472656 112.941406 260.433594 C 112.941406 260.402344 112.917969 260.371094 112.882812 260.367188 L 112.882812 257.035156 C 112.902344 257.03125 112.917969 257.011719 112.917969 256.992188 C 112.917969 256.964844 112.898438 256.945312 112.871094 256.945312 C 112.847656 256.945312 112.824219 256.964844 112.824219 256.992188 C 112.824219 257.011719 112.839844 257.03125 112.859375 257.035156 L 112.859375 260.367188 C 112.828125 260.371094 112.800781 260.402344 112.800781 260.433594 Z M 114.960938 261.839844 C 114.921875 261.839844 114.890625 261.871094 114.890625 261.910156 C 114.890625 261.949219 114.921875 261.980469 114.960938 261.980469 C 114.996094 261.980469 115.027344 261.953125 115.03125 261.921875 L 117.65625 261.921875 C 117.660156 261.941406 117.679688 261.957031 117.703125 261.957031 C 117.726562 261.957031 117.75 261.9375 117.75 261.910156 C 117.75 261.882812 117.726562 261.863281 117.703125 261.863281 C 117.679688 261.863281 117.660156 261.878906 117.65625 261.898438 L 115.03125 261.898438 C 115.027344 261.863281 114.996094 261.839844 114.960938 261.839844 Z M 116.074219 261.023438 C 116.054688 260.992188 116.011719 260.980469 115.980469 261 C 115.960938 261.011719 115.949219 261.027344 115.945312 261.046875 L 115.023438 261.046875 C 115.019531 261.046875 115.015625 261.046875 115.011719 261.050781 C 115.011719 261.050781 115.011719 261.054688 115.011719 261.054688 L 114.882812 261.273438 L 114.308594 261.273438 C 114.304688 261.273438 114.300781 261.273438 114.300781 261.277344 C 114.296875 261.277344 114.296875 261.277344 114.296875 261.277344 L 113.875 261.699219 L 113.507812 261.699219 L 113.507812 261.347656 C 113.542969 261.339844 113.566406 261.3125 113.566406 261.277344 C 113.566406 261.238281 113.535156 261.207031 113.496094 261.207031 C 113.457031 261.207031 113.425781 261.238281 113.425781 261.277344 C 113.425781 261.3125 113.453125 261.339844 113.484375 261.347656 L 113.484375 261.710938 C 113.484375 261.71875 113.492188 261.722656 113.496094 261.722656 L 113.878906 261.722656 C 113.882812 261.722656 113.886719 261.722656 113.890625 261.71875 L 114.308594 261.296875 L 114.890625 261.296875 C 114.894531 261.296875 114.898438 261.296875 114.902344 261.292969 L 115.027344 261.070312 L 115.945312 261.070312 C 115.945312 261.078125 115.949219 261.085938 115.953125 261.09375 C 115.96875 261.125 116.007812 261.136719 116.039062 261.125 L 116.207031 261.421875 C 116.210938 261.425781 116.214844 261.425781 116.21875 261.425781 L 116.863281 261.425781 C 116.867188 261.449219 116.886719 261.464844 116.910156 261.464844 C 116.933594 261.464844 116.957031 261.441406 116.957031 261.414062 C 116.957031 261.390625 116.933594 261.367188 116.910156 261.367188 C 116.886719 261.367188 116.867188 261.382812 116.863281 261.402344 L 116.226562 261.402344 L 116.058594 261.113281 C 116.085938 261.09375 116.089844 261.054688 116.074219 261.023438 Z M 112.5 262.125 C 112.5 262.164062 112.53125 262.195312 112.570312 262.195312 C 112.609375 262.195312 112.640625 262.164062 112.640625 262.125 C 112.640625 262.089844 112.613281 262.0625 112.582031 262.054688 L 112.582031 261.054688 L 113.183594 260.539062 C 113.183594 260.535156 113.1875 260.535156 113.1875 260.53125 L 113.1875 259.113281 C 113.199219 259.113281 113.214844 259.105469 113.222656 259.09375 C 113.25 259.070312 113.25 259.03125 113.230469 259.003906 L 113.585938 258.652344 C 113.585938 258.648438 113.585938 258.648438 113.585938 258.644531 L 113.585938 258.035156 C 113.609375 258.03125 113.621094 258.011719 113.621094 257.988281 C 113.621094 257.964844 113.601562 257.941406 113.574219 257.941406 C 113.550781 257.941406 113.527344 257.964844 113.527344 257.988281 C 113.527344 258.011719 113.542969 258.03125 113.5625 258.035156 L 113.5625 258.640625 L 113.214844 258.988281 C 113.1875 258.96875 113.148438 258.972656 113.125 258.996094 C 113.097656 259.023438 113.097656 259.066406 113.125 259.09375 C 113.136719 259.105469 113.148438 259.113281 113.164062 259.113281 L 113.164062 260.523438 L 112.5625 261.039062 C 112.558594 261.042969 112.558594 261.042969 112.558594 261.046875 C 112.558594 261.046875 112.558594 261.050781 112.558594 261.050781 L 112.558594 262.054688 C 112.523438 262.0625 112.5 262.089844 112.5 262.125 Z M 112.5 262.125 " fill-opacity="1" fill-rule="nonzero"/></g><g clip-path="url(#37d538cbea)"><path fill="#040606" d="M 255.621094 138.882812 L 221.410156 138.882812 L 186.097656 187.476562 L 146.644531 187.476562 L 114.253906 236.070312 L 61.132812 236.070312 L 61.132812 245.789062 L 119.457031 245.789062 L 151.84375 197.195312 L 191.03125 197.195312 L 226.382812 148.601562 L 260.40625 148.601562 L 307.035156 88.011719 L 321.617188 99.25 L 314.097656 70.851562 L 284.707031 70.851562 L 299.328125 82.089844 L 255.621094 138.882812 " fill-opacity="1" fill-rule="nonzero"/></g><g clip-path="url(#1eaa0c06a7)"><path fill="#040606" d="M 216.664062 216.632812 L 245.824219 216.632812 L 245.824219 294.382812 L 216.664062 294.382812 Z M 206.941406 206.914062 L 206.941406 304.101562 L 255.546875 304.101562 L 255.546875 206.914062 L 206.941406 206.914062 " fill-opacity="1" fill-rule="nonzero"/></g><g clip-path="url(#bc778fb44c)"><path fill="#040606" d="M 284.707031 187.476562 L 313.871094 187.476562 L 313.871094 294.382812 L 284.707031 294.382812 Z M 274.988281 177.757812 L 274.988281 304.101562 L 323.589844 304.101562 L 323.589844 177.757812 L 274.988281 177.757812 " fill-opacity="1" fill-rule="nonzero"/></g><g clip-path="url(#fa3d6b98ce)"><path fill="#040606" d="M 148.617188 245.789062 L 177.78125 245.789062 L 177.78125 294.382812 L 148.617188 294.382812 Z M 138.898438 236.070312 L 138.898438 304.101562 L 187.5 304.101562 L 187.5 236.070312 L 138.898438 236.070312 " fill-opacity="1" fill-rule="nonzero"/></g><g clip-path="url(#b6b782b370)"><path fill="#040606" d="M 80.574219 265.226562 L 109.734375 265.226562 L 109.734375 294.382812 L 80.574219 294.382812 Z M 70.851562 255.507812 L 70.851562 304.101562 L 119.457031 304.101562 L 119.457031 255.507812 L 70.851562 255.507812 " fill-opacity="1" fill-rule="nonzero"/></g></svg>