<svg xmlns="http://www.w3.org/2000/svg" xmlns:xlink="http://www.w3.org/1999/xlink" width="500" zoomAndPan="magnify" viewBox="0 0 375 374.999991" height="500" preserveAspectRatio="xMidYMid meet" version="1.0"><defs><clipPath id="24b7380120"><path d="M 112.5 256.945312 L 117.75 256.945312 L 117.75 262.195312 L 112.5 262.195312 Z M 112.5 256.945312 " clip-rule="nonzero"/></clipPath><clipPath id="f7f3b98fa4"><path d="M 75 102.140625 L 300 102.140625 L 300 273 L 75 273 Z M 75 102.140625 " clip-rule="nonzero"/></clipPath></defs><g clip-path="url(#24b7380120)"><path fill="#20e5f6" d="M 112.824219 261.449219 C 112.824219 261.410156 112.792969 261.378906 112.753906 261.378906 C 112.714844 261.378906 112.683594 261.410156 112.683594 261.449219 C 112.683594 261.484375 112.710938 261.511719 112.742188 261.515625 L 112.742188 261.875 C 112.742188 261.878906 112.742188 261.882812 112.746094 261.882812 L 113 262.136719 C 113 262.140625 113.003906 262.140625 113.007812 262.140625 L 114.417969 262.140625 C 114.421875 262.140625 114.425781 262.136719 114.425781 262.136719 L 114.859375 261.703125 L 116.09375 261.703125 C 116.097656 261.722656 116.117188 261.738281 116.136719 261.738281 C 116.164062 261.738281 116.183594 261.71875 116.183594 261.691406 C 116.183594 261.667969 116.164062 261.644531 116.136719 261.644531 C 116.117188 261.644531 116.097656 261.660156 116.09375 261.679688 L 114.855469 261.679688 C 114.851562 261.679688 114.847656 261.679688 114.847656 261.683594 C 114.847656 261.683594 114.84375 261.683594 114.84375 261.683594 L 114.414062 262.117188 L 113.011719 262.117188 L 112.765625 261.871094 L 112.765625 261.519531 C 112.800781 261.511719 112.824219 261.484375 112.824219 261.449219 M 115.382812 261.574219 C 115.421875 261.574219 115.453125 261.542969 115.453125 261.503906 C 115.453125 261.46875 115.421875 261.433594 115.382812 261.433594 C 115.351562 261.433594 115.320312 261.460938 115.316406 261.492188 L 114.375 261.492188 C 114.371094 261.492188 114.367188 261.496094 114.367188 261.496094 L 113.945312 261.917969 L 113.183594 261.917969 L 112.988281 261.71875 L 112.988281 261.148438 L 113.746094 260.457031 C 113.746094 260.453125 113.75 260.449219 113.75 260.449219 L 113.75 259.488281 C 113.769531 259.484375 113.785156 259.464844 113.785156 259.445312 C 113.785156 259.417969 113.761719 259.394531 113.738281 259.394531 C 113.710938 259.394531 113.6875 259.417969 113.6875 259.445312 C 113.6875 259.464844 113.703125 259.484375 113.722656 259.488281 L 113.722656 260.441406 L 112.96875 261.132812 C 112.96875 261.132812 112.964844 261.136719 112.964844 261.140625 C 112.964844 261.140625 112.964844 261.140625 112.964844 261.144531 L 112.964844 261.722656 C 112.964844 261.726562 112.964844 261.726562 112.964844 261.730469 C 112.96875 261.730469 112.96875 261.730469 112.96875 261.734375 L 113.171875 261.9375 C 113.175781 261.9375 113.175781 261.941406 113.179688 261.941406 L 113.949219 261.941406 C 113.953125 261.941406 113.957031 261.941406 113.957031 261.9375 C 113.960938 261.9375 113.960938 261.9375 113.960938 261.9375 L 114.378906 261.515625 L 115.316406 261.515625 C 115.320312 261.550781 115.351562 261.574219 115.382812 261.574219 Z M 113.566406 259.929688 C 113.601562 259.949219 113.640625 259.9375 113.660156 259.902344 C 113.679688 259.871094 113.667969 259.828125 113.636719 259.808594 C 113.605469 259.789062 113.570312 259.796875 113.546875 259.824219 L 113.511719 259.800781 L 113.511719 259.316406 C 113.53125 259.3125 113.546875 259.292969 113.546875 259.269531 C 113.546875 259.246094 113.523438 259.222656 113.5 259.222656 C 113.472656 259.222656 113.453125 259.246094 113.453125 259.269531 C 113.453125 259.292969 113.464844 259.3125 113.488281 259.316406 L 113.488281 259.808594 C 113.488281 259.8125 113.488281 259.816406 113.492188 259.816406 C 113.492188 259.816406 113.492188 259.820312 113.492188 259.820312 L 113.535156 259.84375 C 113.523438 259.875 113.535156 259.910156 113.566406 259.929688 Z M 113.171875 261.640625 C 113.171875 261.679688 113.203125 261.710938 113.242188 261.710938 C 113.28125 261.710938 113.3125 261.679688 113.3125 261.640625 C 113.3125 261.605469 113.285156 261.578125 113.253906 261.570312 L 113.253906 261.226562 L 114.03125 260.449219 C 114.035156 260.445312 114.035156 260.441406 114.035156 260.4375 L 114.035156 260.136719 C 114.054688 260.132812 114.070312 260.113281 114.070312 260.089844 C 114.070312 260.066406 114.050781 260.042969 114.023438 260.042969 C 113.996094 260.042969 113.976562 260.066406 113.976562 260.089844 C 113.976562 260.113281 113.992188 260.132812 114.011719 260.136719 L 114.011719 260.433594 L 113.234375 261.210938 C 113.230469 261.214844 113.230469 261.214844 113.230469 261.21875 C 113.230469 261.21875 113.230469 261.21875 113.230469 261.222656 L 113.230469 261.570312 C 113.195312 261.578125 113.171875 261.605469 113.171875 261.640625 Z M 112.800781 260.433594 C 112.800781 260.472656 112.832031 260.503906 112.871094 260.503906 C 112.910156 260.503906 112.941406 260.472656 112.941406 260.433594 C 112.941406 260.402344 112.917969 260.371094 112.882812 260.367188 L 112.882812 257.035156 C 112.902344 257.03125 112.917969 257.011719 112.917969 256.992188 C 112.917969 256.964844 112.898438 256.945312 112.871094 256.945312 C 112.847656 256.945312 112.824219 256.964844 112.824219 256.992188 C 112.824219 257.011719 112.839844 257.03125 112.859375 257.035156 L 112.859375 260.367188 C 112.828125 260.371094 112.800781 260.402344 112.800781 260.433594 Z M 114.960938 261.839844 C 114.921875 261.839844 114.890625 261.871094 114.890625 261.910156 C 114.890625 261.949219 114.921875 261.980469 114.960938 261.980469 C 114.996094 261.980469 115.027344 261.953125 115.03125 261.921875 L 117.65625 261.921875 C 117.660156 261.941406 117.679688 261.957031 117.703125 261.957031 C 117.726562 261.957031 117.75 261.9375 117.75 261.910156 C 117.75 261.882812 117.726562 261.863281 117.703125 261.863281 C 117.679688 261.863281 117.660156 261.878906 117.65625 261.898438 L 115.03125 261.898438 C 115.027344 261.863281 114.996094 261.839844 114.960938 261.839844 Z M 116.074219 261.023438 C 116.054688 260.992188 116.011719 260.980469 115.980469 261 C 115.960938 261.011719 115.949219 261.027344 115.945312 261.046875 L 115.023438 261.046875 C 115.019531 261.046875 115.015625 261.046875 115.011719 261.050781 C 115.011719 261.050781 115.011719 261.054688 115.011719 261.054688 L 114.882812 261.273438 L 114.308594 261.273438 C 114.304688 261.273438 114.300781 261.273438 114.300781 261.277344 C 114.296875 261.277344 114.296875 261.277344 114.296875 261.277344 L 113.875 261.699219 L 113.507812 261.699219 L 113.507812 261.347656 C 113.542969 261.339844 113.566406 261.3125 113.566406 261.277344 C 113.566406 261.238281 113.535156 261.207031 113.496094 261.207031 C 113.457031 261.207031 113.425781 261.238281 113.425781 261.277344 C 113.425781 261.3125 113.453125 261.339844 113.484375 261.347656 L 113.484375 261.710938 C 113.484375 261.71875 113.492188 261.722656 113.496094 261.722656 L 113.878906 261.722656 C 113.882812 261.722656 113.886719 261.722656 113.890625 261.71875 L 114.308594 261.296875 L 114.890625 261.296875 C 114.894531 261.296875 114.898438 261.296875 114.902344 261.292969 L 115.027344 261.070312 L 115.945312 261.070312 C 115.945312 261.078125 115.949219 261.085938 115.953125 261.09375 C 115.96875 261.125 116.007812 261.136719 116.039062 261.125 L 116.207031 261.421875 C 116.210938 261.425781 116.214844 261.425781 116.21875 261.425781 L 116.863281 261.425781 C 116.867188 261.449219 116.886719 261.464844 116.910156 261.464844 C 116.933594 261.464844 116.957031 261.441406 116.957031 261.414062 C 116.957031 261.390625 116.933594 261.367188 116.910156 261.367188 C 116.886719 261.367188 116.867188 261.382812 116.863281 261.402344 L 116.226562 261.402344 L 116.058594 261.113281 C 116.085938 261.09375 116.089844 261.054688 116.074219 261.023438 Z M 112.5 262.125 C 112.5 262.164062 112.53125 262.195312 112.570312 262.195312 C 112.609375 262.195312 112.640625 262.164062 112.640625 262.125 C 112.640625 262.089844 112.613281 262.0625 112.582031 262.054688 L 112.582031 261.054688 L 113.183594 260.539062 C 113.183594 260.535156 113.1875 260.535156 113.1875 260.53125 L 113.1875 259.113281 C 113.199219 259.113281 113.214844 259.105469 113.222656 259.09375 C 113.25 259.070312 113.25 259.03125 113.230469 259.003906 L 113.585938 258.652344 C 113.585938 258.648438 113.585938 258.648438 113.585938 258.644531 L 113.585938 258.035156 C 113.609375 258.03125 113.621094 258.011719 113.621094 257.988281 C 113.621094 257.964844 113.601562 257.941406 113.574219 257.941406 C 113.550781 257.941406 113.527344 257.964844 113.527344 257.988281 C 113.527344 258.011719 113.542969 258.03125 113.5625 258.035156 L 113.5625 258.640625 L 113.214844 258.988281 C 113.1875 258.96875 113.148438 258.972656 113.125 258.996094 C 113.097656 259.023438 113.097656 259.066406 113.125 259.09375 C 113.136719 259.105469 113.148438 259.113281 113.164062 259.113281 L 113.164062 260.523438 L 112.5625 261.039062 C 112.558594 261.042969 112.558594 261.042969 112.558594 261.046875 C 112.558594 261.046875 112.558594 261.050781 112.558594 261.050781 L 112.558594 262.054688 C 112.523438 262.0625 112.5 262.089844 112.5 262.125 Z M 112.5 262.125 " fill-opacity="1" fill-rule="nonzero"/></g><path fill="#ffffff" d="M 239.199219 192.886719 C 226.007812 192.886719 215.234375 182.113281 215.234375 168.921875 C 215.234375 155.726562 226.007812 144.953125 239.199219 144.953125 C 252.394531 144.953125 263.164062 155.726562 263.164062 168.921875 C 263.164062 182.113281 252.394531 192.886719 239.199219 192.886719 Z M 239.199219 150.339844 C 228.96875 150.339844 220.621094 158.6875 220.621094 168.921875 C 220.621094 179.152344 228.96875 187.5 239.199219 187.5 C 249.433594 187.5 257.78125 179.152344 257.78125 168.921875 C 257.78125 158.6875 249.433594 150.339844 239.199219 150.339844 Z M 239.199219 150.339844 " fill-opacity="1" fill-rule="nonzero"/><path fill="#ffffff" d="M 283.089844 227.082031 L 265.050781 194.769531 C 266.933594 194.230469 268.820312 193.425781 270.167969 191.539062 C 271.78125 189.117188 271.78125 186.152344 271.511719 183.460938 C 271.511719 181.84375 271.242188 180.5 271.511719 179.421875 C 271.78125 178.613281 272.859375 177.269531 273.667969 176.191406 C 275.28125 174.035156 277.4375 171.882812 277.4375 168.652344 C 277.4375 165.417969 275.550781 163.265625 273.667969 161.109375 C 272.859375 160.035156 271.78125 158.957031 271.511719 157.878906 C 271.242188 156.804688 271.242188 155.457031 271.511719 153.839844 C 271.78125 151.148438 271.78125 148.1875 270.167969 145.761719 C 268.28125 143.339844 265.589844 142.53125 262.894531 141.992188 C 261.550781 141.722656 259.933594 141.183594 259.125 140.648438 C 258.320312 140.109375 257.511719 138.761719 256.703125 137.414062 C 255.355469 135.261719 253.742188 132.570312 250.777344 131.761719 C 248.085938 130.953125 245.394531 132.03125 242.96875 132.835938 C 241.625 133.375 240.007812 133.914062 238.929688 133.914062 C 237.855469 133.914062 236.507812 133.375 234.890625 132.835938 C 232.46875 131.761719 229.777344 130.683594 227.082031 131.761719 C 224.121094 132.570312 222.503906 135.261719 221.160156 137.414062 C 220.351562 138.761719 219.542969 139.839844 218.734375 140.648438 C 217.929688 141.183594 216.3125 141.722656 214.964844 141.992188 C 212.273438 142.53125 209.582031 143.339844 207.695312 145.761719 C 206.078125 148.1875 206.078125 151.148438 206.347656 153.839844 C 206.347656 155.457031 206.617188 156.804688 206.347656 157.878906 C 206.078125 158.6875 205.003906 160.035156 204.195312 161.109375 C 202.578125 163.265625 200.425781 165.417969 200.425781 168.652344 C 200.425781 171.613281 202.308594 174.035156 204.195312 176.191406 C 205.003906 177.269531 206.078125 178.34375 206.347656 179.421875 C 206.617188 180.5 206.617188 181.84375 206.347656 183.460938 C 206.078125 186.152344 206.078125 189.117188 207.695312 191.539062 C 209.3125 193.691406 211.734375 194.5 214.15625 195.039062 L 196.386719 227.082031 C 195.847656 227.890625 195.847656 228.96875 196.386719 229.777344 C 196.925781 230.582031 197.730469 231.121094 198.808594 231.121094 L 210.386719 230.3125 L 215.773438 240.546875 C 216.3125 241.355469 217.121094 241.894531 218.195312 241.894531 C 219.273438 241.894531 220.082031 241.355469 220.621094 240.546875 L 240.007812 206.347656 L 258.855469 240.277344 C 259.394531 241.085938 260.203125 241.625 261.28125 241.625 C 262.359375 241.625 263.164062 241.085938 263.703125 240.277344 L 269.089844 230.046875 L 280.667969 230.851562 C 281.746094 230.851562 282.554688 230.3125 283.089844 229.507812 C 283.628906 228.96875 283.628906 227.890625 283.089844 227.082031 Z M 212.003906 183.730469 C 212.003906 181.84375 212.273438 179.691406 211.734375 177.804688 C 211.195312 175.921875 209.851562 174.304688 208.503906 172.960938 C 207.425781 171.613281 206.078125 169.996094 206.078125 168.921875 C 206.078125 167.84375 207.425781 166.226562 208.503906 164.882812 C 209.851562 163.265625 211.195312 161.917969 211.734375 160.035156 C 212.273438 158.148438 212.273438 155.996094 212.003906 154.109375 C 212.003906 152.226562 211.734375 150.339844 212.273438 149.53125 C 212.8125 148.726562 214.695312 148.1875 216.3125 147.917969 C 218.195312 147.378906 220.351562 146.839844 221.96875 145.761719 C 223.582031 144.6875 224.660156 142.800781 225.738281 141.183594 C 226.8125 139.570312 227.621094 137.953125 228.699219 137.683594 C 228.96875 137.683594 228.96875 137.683594 229.238281 137.683594 C 230.3125 137.683594 231.660156 138.222656 233.007812 138.761719 C 234.890625 139.570312 236.777344 140.378906 238.929688 140.378906 C 241.085938 140.378906 242.96875 139.570312 244.855469 138.761719 C 246.46875 138.222656 248.085938 137.414062 249.164062 137.683594 C 250.242188 137.953125 251.046875 139.570312 252.125 141.183594 C 253.203125 142.800781 254.28125 144.6875 255.894531 145.761719 C 257.511719 146.839844 259.664062 147.378906 261.550781 147.917969 C 263.433594 148.457031 265.050781 148.726562 265.589844 149.53125 C 266.128906 150.339844 266.128906 152.226562 265.859375 154.109375 C 265.859375 155.996094 265.589844 158.148438 266.128906 160.035156 C 266.667969 161.917969 268.011719 163.535156 269.359375 164.882812 C 270.4375 166.226562 271.78125 167.84375 271.78125 168.921875 C 271.78125 169.996094 270.4375 171.613281 269.359375 172.960938 C 268.011719 174.574219 266.667969 175.921875 266.128906 177.804688 C 265.589844 179.691406 265.589844 181.84375 265.859375 183.730469 C 265.859375 185.613281 266.128906 187.5 265.589844 188.308594 C 265.050781 189.117188 263.164062 189.652344 261.550781 189.921875 C 259.664062 190.460938 257.511719 191 255.894531 192.078125 C 254.28125 193.15625 253.203125 195.039062 252.125 196.65625 C 251.046875 198.269531 250.242188 199.886719 249.164062 200.15625 C 248.355469 200.425781 246.46875 199.617188 244.855469 199.078125 C 243.507812 198.539062 241.894531 198 240.546875 197.730469 C 240.007812 197.730469 239.46875 197.464844 238.929688 197.464844 C 236.777344 197.464844 234.890625 198.269531 233.007812 199.078125 C 231.390625 199.617188 229.777344 200.425781 228.699219 200.15625 C 227.621094 199.886719 226.8125 198.269531 225.738281 196.65625 C 224.660156 195.039062 223.582031 193.15625 221.96875 192.078125 C 220.351562 191 218.195312 190.460938 216.3125 189.921875 C 214.425781 189.386719 212.8125 189.117188 212.273438 188.308594 C 211.734375 187.5 212.003906 185.613281 212.003906 183.730469 Z M 218.734375 233.546875 L 214.695312 226.273438 C 214.15625 225.46875 213.082031 224.929688 212.273438 224.929688 L 203.925781 225.199219 L 219.542969 196.925781 C 220.082031 197.464844 220.890625 198.539062 221.429688 199.617188 C 222.773438 201.769531 224.390625 204.464844 227.351562 205.273438 C 228.160156 205.542969 228.699219 205.542969 229.507812 205.542969 C 231.390625 205.542969 233.546875 204.734375 235.160156 203.925781 Z M 267.742188 224.660156 C 266.667969 224.660156 265.589844 225.199219 265.320312 226.007812 L 261.28125 233.277344 L 245.664062 205.003906 C 247.277344 205.542969 249.164062 205.808594 251.046875 205.273438 C 254.011719 204.464844 255.625 201.769531 256.972656 199.617188 C 257.78125 198.269531 258.589844 197.195312 259.394531 196.386719 C 259.664062 196.117188 259.933594 196.117188 260.203125 196.117188 L 276.359375 225.199219 Z M 267.742188 224.660156 " fill-opacity="1" fill-rule="nonzero"/><g clip-path="url(#f7f3b98fa4)"><path fill="#ffffff" d="M 287.667969 272.859375 L 87.332031 272.859375 C 80.867188 272.859375 75.75 267.742188 75.75 261.28125 L 75.75 113.71875 C 75.75 107.257812 80.867188 102.140625 87.332031 102.140625 L 287.667969 102.140625 C 294.132812 102.140625 299.25 107.257812 299.25 113.71875 L 299.25 261.28125 C 299.25 267.472656 293.863281 272.859375 287.667969 272.859375 Z M 87.332031 107.527344 C 83.832031 107.527344 81.136719 110.21875 81.136719 113.71875 L 81.136719 261.28125 C 81.136719 264.78125 83.832031 267.472656 87.332031 267.472656 L 287.667969 267.472656 C 291.167969 267.472656 293.863281 264.78125 293.863281 261.28125 L 293.863281 113.71875 C 293.863281 110.21875 291.167969 107.527344 287.667969 107.527344 Z M 87.332031 107.527344 " fill-opacity="1" fill-rule="nonzero"/></g><path fill="#ffffff" d="M 278.246094 261.550781 L 97.5625 261.550781 C 91.910156 261.550781 87.332031 256.972656 87.332031 251.316406 L 87.332031 123.683594 C 87.332031 118.027344 91.910156 113.449219 97.5625 113.449219 L 278.246094 113.449219 C 283.898438 113.449219 288.476562 118.027344 288.476562 123.683594 L 288.476562 251.316406 C 288.476562 256.972656 283.898438 261.550781 278.246094 261.550781 Z M 97.5625 116.144531 C 93.523438 116.144531 90.023438 119.644531 90.023438 123.683594 L 90.023438 251.316406 C 90.023438 255.355469 93.523438 258.855469 97.5625 258.855469 L 278.246094 258.855469 C 282.285156 258.855469 285.785156 255.355469 285.785156 251.316406 L 285.785156 123.683594 C 285.785156 119.644531 282.285156 116.144531 278.246094 116.144531 Z M 97.5625 116.144531 " fill-opacity="1" fill-rule="nonzero"/><path fill="#ffffff" d="M 194.230469 142.261719 L 106.988281 142.261719 C 105.371094 142.261719 104.292969 141.183594 104.292969 139.570312 C 104.292969 137.953125 105.371094 136.875 106.988281 136.875 L 193.960938 136.875 C 195.578125 136.875 196.65625 137.953125 196.65625 139.570312 C 196.65625 141.183594 195.578125 142.261719 194.230469 142.261719 Z M 194.230469 142.261719 " fill-opacity="1" fill-rule="nonzero"/><path fill="#ffffff" d="M 184.269531 209.582031 L 106.988281 209.582031 C 105.371094 209.582031 104.292969 208.503906 104.292969 206.886719 C 104.292969 205.273438 105.371094 204.195312 106.988281 204.195312 L 184.269531 204.195312 C 185.882812 204.195312 186.960938 205.273438 186.960938 206.886719 C 186.960938 208.503906 185.882812 209.582031 184.269531 209.582031 Z M 184.269531 209.582031 " fill-opacity="1" fill-rule="nonzero"/><path fill="#ffffff" d="M 184.269531 178.613281 L 106.988281 178.613281 C 105.371094 178.613281 104.292969 177.535156 104.292969 175.921875 C 104.292969 174.304688 105.371094 173.230469 106.988281 173.230469 L 184.269531 173.230469 C 185.882812 173.230469 186.960938 174.304688 186.960938 175.921875 C 186.960938 177.535156 185.882812 178.613281 184.269531 178.613281 Z M 184.269531 178.613281 " fill-opacity="1" fill-rule="nonzero"/><path fill="#ffffff" d="M 147.917969 230.046875 L 106.988281 230.046875 C 105.371094 230.046875 104.292969 228.96875 104.292969 227.351562 C 104.292969 225.738281 105.371094 224.660156 106.988281 224.660156 L 147.917969 224.660156 C 149.53125 224.660156 150.609375 225.738281 150.609375 227.351562 C 150.609375 228.96875 149.53125 230.046875 147.917969 230.046875 Z M 147.917969 230.046875 " fill-opacity="1" fill-rule="nonzero"/></svg>