<svg xmlns="http://www.w3.org/2000/svg" xmlns:xlink="http://www.w3.org/1999/xlink" width="500" zoomAndPan="magnify" viewBox="0 0 375 374.999991" height="500" preserveAspectRatio="xMidYMid meet" version="1.0"><defs><clipPath id="2de3f97573"><path d="M 112.5 256.945312 L 117.75 256.945312 L 117.75 262.195312 L 112.5 262.195312 Z M 112.5 256.945312 " clip-rule="nonzero"/></clipPath><clipPath id="e20654f896"><path d="M 75 102.140625 L 300 102.140625 L 300 273 L 75 273 Z M 75 102.140625 " clip-rule="nonzero"/></clipPath><clipPath id="639b10ed4f"><path d="M 78.546875 256 L 96 256 L 96 269 L 78.546875 269 Z M 78.546875 256 " clip-rule="nonzero"/></clipPath><clipPath id="57de93ef1a"><path d="M 279 256 L 296.796875 256 L 296.796875 269 L 279 269 Z M 279 256 " clip-rule="nonzero"/></clipPath><clipPath id="a5c07fb56b"><path d="M 78.546875 285 L 296.796875 285 L 296.796875 297.195312 L 78.546875 297.195312 Z M 78.546875 285 " clip-rule="nonzero"/></clipPath></defs><g clip-path="url(#2de3f97573)"><path fill="#20e5f6" d="M 112.824219 261.449219 C 112.824219 261.410156 112.792969 261.378906 112.753906 261.378906 C 112.714844 261.378906 112.683594 261.410156 112.683594 261.449219 C 112.683594 261.484375 112.710938 261.511719 112.742188 261.515625 L 112.742188 261.875 C 112.742188 261.878906 112.742188 261.882812 112.746094 261.882812 L 113 262.136719 C 113 262.140625 113.003906 262.140625 113.007812 262.140625 L 114.417969 262.140625 C 114.421875 262.140625 114.425781 262.136719 114.425781 262.136719 L 114.859375 261.703125 L 116.09375 261.703125 C 116.097656 261.722656 116.117188 261.738281 116.136719 261.738281 C 116.164062 261.738281 116.183594 261.71875 116.183594 261.691406 C 116.183594 261.667969 116.164062 261.644531 116.136719 261.644531 C 116.117188 261.644531 116.097656 261.660156 116.09375 261.679688 L 114.855469 261.679688 C 114.851562 261.679688 114.847656 261.679688 114.847656 261.683594 C 114.847656 261.683594 114.84375 261.683594 114.84375 261.683594 L 114.414062 262.117188 L 113.011719 262.117188 L 112.765625 261.871094 L 112.765625 261.519531 C 112.800781 261.511719 112.824219 261.484375 112.824219 261.449219 M 115.382812 261.574219 C 115.421875 261.574219 115.453125 261.542969 115.453125 261.503906 C 115.453125 261.46875 115.421875 261.433594 115.382812 261.433594 C 115.351562 261.433594 115.320312 261.460938 115.316406 261.492188 L 114.375 261.492188 C 114.371094 261.492188 114.367188 261.496094 114.367188 261.496094 L 113.945312 261.917969 L 113.183594 261.917969 L 112.988281 261.71875 L 112.988281 261.148438 L 113.746094 260.457031 C 113.746094 260.453125 113.75 260.449219 113.75 260.449219 L 113.75 259.488281 C 113.769531 259.484375 113.785156 259.464844 113.785156 259.445312 C 113.785156 259.417969 113.761719 259.394531 113.738281 259.394531 C 113.710938 259.394531 113.6875 259.417969 113.6875 259.445312 C 113.6875 259.464844 113.703125 259.484375 113.722656 259.488281 L 113.722656 260.441406 L 112.96875 261.132812 C 112.96875 261.132812 112.964844 261.136719 112.964844 261.140625 C 112.964844 261.140625 112.964844 261.140625 112.964844 261.144531 L 112.964844 261.722656 C 112.964844 261.726562 112.964844 261.726562 112.964844 261.730469 C 112.96875 261.730469 112.96875 261.730469 112.96875 261.734375 L 113.171875 261.9375 C 113.175781 261.9375 113.175781 261.941406 113.179688 261.941406 L 113.949219 261.941406 C 113.953125 261.941406 113.957031 261.941406 113.957031 261.9375 C 113.960938 261.9375 113.960938 261.9375 113.960938 261.9375 L 114.378906 261.515625 L 115.316406 261.515625 C 115.320312 261.550781 115.351562 261.574219 115.382812 261.574219 Z M 113.566406 259.929688 C 113.601562 259.949219 113.640625 259.9375 113.660156 259.902344 C 113.679688 259.871094 113.667969 259.828125 113.636719 259.808594 C 113.605469 259.789062 113.570312 259.796875 113.546875 259.824219 L 113.511719 259.800781 L 113.511719 259.316406 C 113.53125 259.3125 113.546875 259.292969 113.546875 259.269531 C 113.546875 259.246094 113.523438 259.222656 113.5 259.222656 C 113.472656 259.222656 113.453125 259.246094 113.453125 259.269531 C 113.453125 259.292969 113.464844 259.3125 113.488281 259.316406 L 113.488281 259.808594 C 113.488281 259.8125 113.488281 259.816406 113.492188 259.816406 C 113.492188 259.816406 113.492188 259.820312 113.492188 259.820312 L 113.535156 259.84375 C 113.523438 259.875 113.535156 259.910156 113.566406 259.929688 Z M 113.171875 261.640625 C 113.171875 261.679688 113.203125 261.710938 113.242188 261.710938 C 113.28125 261.710938 113.3125 261.679688 113.3125 261.640625 C 113.3125 261.605469 113.285156 261.578125 113.253906 261.570312 L 113.253906 261.226562 L 114.03125 260.449219 C 114.035156 260.445312 114.035156 260.441406 114.035156 260.4375 L 114.035156 260.136719 C 114.054688 260.132812 114.070312 260.113281 114.070312 260.089844 C 114.070312 260.066406 114.050781 260.042969 114.023438 260.042969 C 113.996094 260.042969 113.976562 260.066406 113.976562 260.089844 C 113.976562 260.113281 113.992188 260.132812 114.011719 260.136719 L 114.011719 260.433594 L 113.234375 261.210938 C 113.230469 261.214844 113.230469 261.214844 113.230469 261.21875 C 113.230469 261.21875 113.230469 261.21875 113.230469 261.222656 L 113.230469 261.570312 C 113.195312 261.578125 113.171875 261.605469 113.171875 261.640625 Z M 112.800781 260.433594 C 112.800781 260.472656 112.832031 260.503906 112.871094 260.503906 C 112.910156 260.503906 112.941406 260.472656 112.941406 260.433594 C 112.941406 260.402344 112.917969 260.371094 112.882812 260.367188 L 112.882812 257.035156 C 112.902344 257.03125 112.917969 257.011719 112.917969 256.992188 C 112.917969 256.964844 112.898438 256.945312 112.871094 256.945312 C 112.847656 256.945312 112.824219 256.964844 112.824219 256.992188 C 112.824219 257.011719 112.839844 257.03125 112.859375 257.035156 L 112.859375 260.367188 C 112.828125 260.371094 112.800781 260.402344 112.800781 260.433594 Z M 114.960938 261.839844 C 114.921875 261.839844 114.890625 261.871094 114.890625 261.910156 C 114.890625 261.949219 114.921875 261.980469 114.960938 261.980469 C 114.996094 261.980469 115.027344 261.953125 115.03125 261.921875 L 117.65625 261.921875 C 117.660156 261.941406 117.679688 261.957031 117.703125 261.957031 C 117.726562 261.957031 117.75 261.9375 117.75 261.910156 C 117.75 261.882812 117.726562 261.863281 117.703125 261.863281 C 117.679688 261.863281 117.660156 261.878906 117.65625 261.898438 L 115.03125 261.898438 C 115.027344 261.863281 114.996094 261.839844 114.960938 261.839844 Z M 116.074219 261.023438 C 116.054688 260.992188 116.011719 260.980469 115.980469 261 C 115.960938 261.011719 115.949219 261.027344 115.945312 261.046875 L 115.023438 261.046875 C 115.019531 261.046875 115.015625 261.046875 115.011719 261.050781 C 115.011719 261.050781 115.011719 261.054688 115.011719 261.054688 L 114.882812 261.273438 L 114.308594 261.273438 C 114.304688 261.273438 114.300781 261.273438 114.300781 261.277344 C 114.296875 261.277344 114.296875 261.277344 114.296875 261.277344 L 113.875 261.699219 L 113.507812 261.699219 L 113.507812 261.347656 C 113.542969 261.339844 113.566406 261.3125 113.566406 261.277344 C 113.566406 261.238281 113.535156 261.207031 113.496094 261.207031 C 113.457031 261.207031 113.425781 261.238281 113.425781 261.277344 C 113.425781 261.3125 113.453125 261.339844 113.484375 261.347656 L 113.484375 261.710938 C 113.484375 261.71875 113.492188 261.722656 113.496094 261.722656 L 113.878906 261.722656 C 113.882812 261.722656 113.886719 261.722656 113.890625 261.71875 L 114.308594 261.296875 L 114.890625 261.296875 C 114.894531 261.296875 114.898438 261.296875 114.902344 261.292969 L 115.027344 261.070312 L 115.945312 261.070312 C 115.945312 261.078125 115.949219 261.085938 115.953125 261.09375 C 115.96875 261.125 116.007812 261.136719 116.039062 261.125 L 116.207031 261.421875 C 116.210938 261.425781 116.214844 261.425781 116.21875 261.425781 L 116.863281 261.425781 C 116.867188 261.449219 116.886719 261.464844 116.910156 261.464844 C 116.933594 261.464844 116.957031 261.441406 116.957031 261.414062 C 116.957031 261.390625 116.933594 261.367188 116.910156 261.367188 C 116.886719 261.367188 116.867188 261.382812 116.863281 261.402344 L 116.226562 261.402344 L 116.058594 261.113281 C 116.085938 261.09375 116.089844 261.054688 116.074219 261.023438 Z M 112.5 262.125 C 112.5 262.164062 112.53125 262.195312 112.570312 262.195312 C 112.609375 262.195312 112.640625 262.164062 112.640625 262.125 C 112.640625 262.089844 112.613281 262.0625 112.582031 262.054688 L 112.582031 261.054688 L 113.183594 260.539062 C 113.183594 260.535156 113.1875 260.535156 113.1875 260.53125 L 113.1875 259.113281 C 113.199219 259.113281 113.214844 259.105469 113.222656 259.09375 C 113.25 259.070312 113.25 259.03125 113.230469 259.003906 L 113.585938 258.652344 C 113.585938 258.648438 113.585938 258.648438 113.585938 258.644531 L 113.585938 258.035156 C 113.609375 258.03125 113.621094 258.011719 113.621094 257.988281 C 113.621094 257.964844 113.601562 257.941406 113.574219 257.941406 C 113.550781 257.941406 113.527344 257.964844 113.527344 257.988281 C 113.527344 258.011719 113.542969 258.03125 113.5625 258.035156 L 113.5625 258.640625 L 113.214844 258.988281 C 113.1875 258.96875 113.148438 258.972656 113.125 258.996094 C 113.097656 259.023438 113.097656 259.066406 113.125 259.09375 C 113.136719 259.105469 113.148438 259.113281 113.164062 259.113281 L 113.164062 260.523438 L 112.5625 261.039062 C 112.558594 261.042969 112.558594 261.042969 112.558594 261.046875 C 112.558594 261.046875 112.558594 261.050781 112.558594 261.050781 L 112.558594 262.054688 C 112.523438 262.0625 112.5 262.089844 112.5 262.125 Z M 112.5 262.125 " fill-opacity="1" fill-rule="nonzero"/></g><path fill="#ffffff" d="M 239.199219 192.886719 C 226.007812 192.886719 215.234375 182.113281 215.234375 168.921875 C 215.234375 155.726562 226.007812 144.953125 239.199219 144.953125 C 252.394531 144.953125 263.164062 155.726562 263.164062 168.921875 C 263.164062 182.113281 252.394531 192.886719 239.199219 192.886719 Z M 239.199219 150.339844 C 228.96875 150.339844 220.621094 158.6875 220.621094 168.921875 C 220.621094 179.152344 228.96875 187.5 239.199219 187.5 C 249.433594 187.5 257.78125 179.152344 257.78125 168.921875 C 257.78125 158.6875 249.433594 150.339844 239.199219 150.339844 Z M 239.199219 150.339844 " fill-opacity="1" fill-rule="nonzero"/><path fill="#ffffff" d="M 283.089844 227.082031 L 265.050781 194.769531 C 266.933594 194.230469 268.820312 193.425781 270.167969 191.539062 C 271.78125 189.117188 271.78125 186.152344 271.511719 183.460938 C 271.511719 181.84375 271.242188 180.5 271.511719 179.421875 C 271.78125 178.613281 272.859375 177.269531 273.667969 176.191406 C 275.28125 174.035156 277.4375 171.882812 277.4375 168.652344 C 277.4375 165.417969 275.550781 163.265625 273.667969 161.109375 C 272.859375 160.035156 271.78125 158.957031 271.511719 157.878906 C 271.242188 156.804688 271.242188 155.457031 271.511719 153.839844 C 271.78125 151.148438 271.78125 148.1875 270.167969 145.761719 C 268.28125 143.339844 265.589844 142.53125 262.894531 141.992188 C 261.550781 141.722656 259.933594 141.183594 259.125 140.648438 C 258.320312 140.109375 257.511719 138.761719 256.703125 137.414062 C 255.355469 135.261719 253.742188 132.570312 250.777344 131.761719 C 248.085938 130.953125 245.394531 132.03125 242.96875 132.835938 C 241.625 133.375 240.007812 133.914062 238.929688 133.914062 C 237.855469 133.914062 236.507812 133.375 234.890625 132.835938 C 232.46875 131.761719 229.777344 130.683594 227.082031 131.761719 C 224.121094 132.570312 222.503906 135.261719 221.160156 137.414062 C 220.351562 138.761719 219.542969 139.839844 218.734375 140.648438 C 217.929688 141.183594 216.3125 141.722656 214.964844 141.992188 C 212.273438 142.53125 209.582031 143.339844 207.695312 145.761719 C 206.078125 148.1875 206.078125 151.148438 206.347656 153.839844 C 206.347656 155.457031 206.617188 156.804688 206.347656 157.878906 C 206.078125 158.6875 205.003906 160.035156 204.195312 161.109375 C 202.578125 163.265625 200.425781 165.417969 200.425781 168.652344 C 200.425781 171.613281 202.308594 174.035156 204.195312 176.191406 C 205.003906 177.269531 206.078125 178.34375 206.347656 179.421875 C 206.617188 180.5 206.617188 181.84375 206.347656 183.460938 C 206.078125 186.152344 206.078125 189.117188 207.695312 191.539062 C 209.3125 193.691406 211.734375 194.5 214.15625 195.039062 L 196.386719 227.082031 C 195.847656 227.890625 195.847656 228.96875 196.386719 229.777344 C 196.925781 230.582031 197.730469 231.121094 198.808594 231.121094 L 210.386719 230.3125 L 215.773438 240.546875 C 216.3125 241.355469 217.121094 241.894531 218.195312 241.894531 C 219.273438 241.894531 220.082031 241.355469 220.621094 240.546875 L 240.007812 206.347656 L 258.855469 240.277344 C 259.394531 241.085938 260.203125 241.625 261.28125 241.625 C 262.359375 241.625 263.164062 241.085938 263.703125 240.277344 L 269.089844 230.046875 L 280.667969 230.851562 C 281.746094 230.851562 282.554688 230.3125 283.089844 229.507812 C 283.628906 228.96875 283.628906 227.890625 283.089844 227.082031 Z M 212.003906 183.730469 C 212.003906 181.84375 212.273438 179.691406 211.734375 177.804688 C 211.195312 175.921875 209.851562 174.304688 208.503906 172.960938 C 207.425781 171.613281 206.078125 169.996094 206.078125 168.921875 C 206.078125 167.84375 207.425781 166.226562 208.503906 164.882812 C 209.851562 163.265625 211.195312 161.917969 211.734375 160.035156 C 212.273438 158.148438 212.273438 155.996094 212.003906 154.109375 C 212.003906 152.226562 211.734375 150.339844 212.273438 149.53125 C 212.8125 148.726562 214.695312 148.1875 216.3125 147.917969 C 218.195312 147.378906 220.351562 146.839844 221.96875 145.761719 C 223.582031 144.6875 224.660156 142.800781 225.738281 141.183594 C 226.8125 139.570312 227.621094 137.953125 228.699219 137.683594 C 228.96875 137.683594 228.96875 137.683594 229.238281 137.683594 C 230.3125 137.683594 231.660156 138.222656 233.007812 138.761719 C 234.890625 139.570312 236.777344 140.378906 238.929688 140.378906 C 241.085938 140.378906 242.96875 139.570312 244.855469 138.761719 C 246.46875 138.222656 248.085938 137.414062 249.164062 137.683594 C 250.242188 137.953125 251.046875 139.570312 252.125 141.183594 C 253.203125 142.800781 254.28125 144.6875 255.894531 145.761719 C 257.511719 146.839844 259.664062 147.378906 261.550781 147.917969 C 263.433594 148.457031 265.050781 148.726562 265.589844 149.53125 C 266.128906 150.339844 266.128906 152.226562 265.859375 154.109375 C 265.859375 155.996094 265.589844 158.148438 266.128906 160.035156 C 266.667969 161.917969 268.011719 163.535156 269.359375 164.882812 C 270.4375 166.226562 271.78125 167.84375 271.78125 168.921875 C 271.78125 169.996094 270.4375 171.613281 269.359375 172.960938 C 268.011719 174.574219 266.667969 175.921875 266.128906 177.804688 C 265.589844 179.691406 265.589844 181.84375 265.859375 183.730469 C 265.859375 185.613281 266.128906 187.5 265.589844 188.308594 C 265.050781 189.117188 263.164062 189.652344 261.550781 189.921875 C 259.664062 190.460938 257.511719 191 255.894531 192.078125 C 254.28125 193.15625 253.203125 195.039062 252.125 196.65625 C 251.046875 198.269531 250.242188 199.886719 249.164062 200.15625 C 248.355469 200.425781 246.46875 199.617188 244.855469 199.078125 C 243.507812 198.539062 241.894531 198 240.546875 197.730469 C 240.007812 197.730469 239.46875 197.464844 238.929688 197.464844 C 236.777344 197.464844 234.890625 198.269531 233.007812 199.078125 C 231.390625 199.617188 229.777344 200.425781 228.699219 200.15625 C 227.621094 199.886719 226.8125 198.269531 225.738281 196.65625 C 224.660156 195.039062 223.582031 193.15625 221.96875 192.078125 C 220.351562 191 218.195312 190.460938 216.3125 189.921875 C 214.425781 189.386719 212.8125 189.117188 212.273438 188.308594 C 211.734375 187.5 212.003906 185.613281 212.003906 183.730469 Z M 218.734375 233.546875 L 214.695312 226.273438 C 214.15625 225.46875 213.082031 224.929688 212.273438 224.929688 L 203.925781 225.199219 L 219.542969 196.925781 C 220.082031 197.464844 220.890625 198.539062 221.429688 199.617188 C 222.773438 201.769531 224.390625 204.464844 227.351562 205.273438 C 228.160156 205.542969 228.699219 205.542969 229.507812 205.542969 C 231.390625 205.542969 233.546875 204.734375 235.160156 203.925781 Z M 267.742188 224.660156 C 266.667969 224.660156 265.589844 225.199219 265.320312 226.007812 L 261.28125 233.277344 L 245.664062 205.003906 C 247.277344 205.542969 249.164062 205.808594 251.046875 205.273438 C 254.011719 204.464844 255.625 201.769531 256.972656 199.617188 C 257.78125 198.269531 258.589844 197.195312 259.394531 196.386719 C 259.664062 196.117188 259.933594 196.117188 260.203125 196.117188 L 276.359375 225.199219 Z M 267.742188 224.660156 " fill-opacity="1" fill-rule="nonzero"/><g clip-path="url(#e20654f896)"><path fill="#ffffff" d="M 287.667969 272.859375 L 87.332031 272.859375 C 80.867188 272.859375 75.75 267.742188 75.75 261.28125 L 75.75 113.71875 C 75.75 107.257812 80.867188 102.140625 87.332031 102.140625 L 287.667969 102.140625 C 294.132812 102.140625 299.25 107.257812 299.25 113.71875 L 299.25 261.28125 C 299.25 267.472656 293.863281 272.859375 287.667969 272.859375 Z M 87.332031 107.527344 C 83.832031 107.527344 81.136719 110.21875 81.136719 113.71875 L 81.136719 261.28125 C 81.136719 264.78125 83.832031 267.472656 87.332031 267.472656 L 287.667969 267.472656 C 291.167969 267.472656 293.863281 264.78125 293.863281 261.28125 L 293.863281 113.71875 C 293.863281 110.21875 291.167969 107.527344 287.667969 107.527344 Z M 87.332031 107.527344 " fill-opacity="1" fill-rule="nonzero"/></g><path fill="#ffffff" d="M 278.246094 261.550781 L 97.5625 261.550781 C 91.910156 261.550781 87.332031 256.972656 87.332031 251.316406 L 87.332031 123.683594 C 87.332031 118.027344 91.910156 113.449219 97.5625 113.449219 L 278.246094 113.449219 C 283.898438 113.449219 288.476562 118.027344 288.476562 123.683594 L 288.476562 251.316406 C 288.476562 256.972656 283.898438 261.550781 278.246094 261.550781 Z M 97.5625 116.144531 C 93.523438 116.144531 90.023438 119.644531 90.023438 123.683594 L 90.023438 251.316406 C 90.023438 255.355469 93.523438 258.855469 97.5625 258.855469 L 278.246094 258.855469 C 282.285156 258.855469 285.785156 255.355469 285.785156 251.316406 L 285.785156 123.683594 C 285.785156 119.644531 282.285156 116.144531 278.246094 116.144531 Z M 97.5625 116.144531 " fill-opacity="1" fill-rule="nonzero"/><path fill="#ffffff" d="M 194.230469 142.261719 L 106.988281 142.261719 C 105.371094 142.261719 104.292969 141.183594 104.292969 139.570312 C 104.292969 137.953125 105.371094 136.875 106.988281 136.875 L 193.960938 136.875 C 195.578125 136.875 196.65625 137.953125 196.65625 139.570312 C 196.65625 141.183594 195.578125 142.261719 194.230469 142.261719 Z M 194.230469 142.261719 " fill-opacity="1" fill-rule="nonzero"/><path fill="#ffffff" d="M 184.269531 209.582031 L 106.988281 209.582031 C 105.371094 209.582031 104.292969 208.503906 104.292969 206.886719 C 104.292969 205.273438 105.371094 204.195312 106.988281 204.195312 L 184.269531 204.195312 C 185.882812 204.195312 186.960938 205.273438 186.960938 206.886719 C 186.960938 208.503906 185.882812 209.582031 184.269531 209.582031 Z M 184.269531 209.582031 " fill-opacity="1" fill-rule="nonzero"/><path fill="#ffffff" d="M 184.269531 178.613281 L 106.988281 178.613281 C 105.371094 178.613281 104.292969 177.535156 104.292969 175.921875 C 104.292969 174.304688 105.371094 173.230469 106.988281 173.230469 L 184.269531 173.230469 C 185.882812 173.230469 186.960938 174.304688 186.960938 175.921875 C 186.960938 177.535156 185.882812 178.613281 184.269531 178.613281 Z M 184.269531 178.613281 " fill-opacity="1" fill-rule="nonzero"/><path fill="#ffffff" d="M 147.917969 230.046875 L 106.988281 230.046875 C 105.371094 230.046875 104.292969 228.96875 104.292969 227.351562 C 104.292969 225.738281 105.371094 224.660156 106.988281 224.660156 L 147.917969 224.660156 C 149.53125 224.660156 150.609375 225.738281 150.609375 227.351562 C 150.609375 228.96875 149.53125 230.046875 147.917969 230.046875 Z M 147.917969 230.046875 " fill-opacity="1" fill-rule="nonzero"/><path fill="#ffffff" d="M 98.523438 121.816406 C 98.523438 132.742188 98.523438 143.691406 98.523438 154.617188 C 98.523438 164.671875 98.523438 174.726562 98.523438 184.78125 C 98.523438 190.902344 98.523438 197.046875 98.523438 203.167969 C 98.523438 204.980469 98.367188 206.789062 99.53125 208.351562 C 101.050781 210.386719 103.238281 210.40625 105.472656 210.40625 C 108.042969 210.40625 110.613281 210.40625 113.203125 210.40625 C 114.140625 210.40625 115.082031 210.476562 116.019531 210.40625 C 117.179688 210.339844 118.207031 209.691406 119.347656 209.378906 C 121.804688 208.6875 124.441406 208.507812 126.96875 208.867188 C 128.21875 209.046875 129.445312 209.335938 130.632812 209.761719 C 131.144531 209.9375 131.726562 210.296875 132.261719 210.40625 C 132.933594 210.542969 133.78125 210.40625 134.472656 210.40625 C 136.148438 210.40625 137.804688 210.40625 139.480469 210.40625 C 149.777344 210.40625 160.101562 210.40625 170.402344 210.40625 C 173.417969 210.40625 176.546875 210.675781 179.5625 210.40625 C 180.007812 210.363281 179.941406 210.386719 180.433594 210.207031 C 182.800781 209.378906 185.035156 208.734375 187.5625 208.6875 C 190.019531 208.644531 192.476562 209.113281 194.757812 210.007812 C 195.316406 210.230469 195.515625 210.339844 196.03125 210.40625 C 198.957031 210.722656 202.085938 210.40625 205.011719 210.40625 C 210.238281 210.40625 215.445312 210.40625 220.675781 210.40625 C 225.769531 210.40625 230.863281 210.40625 235.957031 210.40625 C 237.65625 210.40625 239.351562 210.40625 241.050781 210.40625 C 241.789062 210.40625 242.660156 210.542969 243.375 210.40625 C 244.515625 210.207031 244.648438 209.960938 244.648438 209.023438 C 244.648438 208.375 244.648438 207.726562 244.648438 207.058594 C 244.648438 206.722656 244.828125 205.78125 244.648438 205.492188 C 244.492188 205.222656 244.558594 205.382812 244.132812 205.3125 C 242.683594 205.066406 240.984375 205.3125 239.507812 205.3125 C 232.671875 205.3125 225.8125 205.3125 218.976562 205.3125 C 208.875 205.3125 198.800781 205.3125 188.699219 205.3125 C 177.6875 205.3125 166.648438 205.3125 155.632812 205.3125 C 145.800781 205.3125 135.992188 205.3125 126.164062 205.3125 C 119.839844 205.3125 113.539062 205.3125 107.214844 205.3125 C 106.433594 205.3125 105.652344 205.3125 104.871094 205.3125 C 104.667969 205.3125 103.886719 205.449219 103.707031 205.3125 C 103.417969 205.113281 103.597656 203.90625 103.597656 203.480469 C 103.597656 197.492188 103.597656 191.507812 103.597656 185.539062 C 103.597656 175.621094 103.597656 165.675781 103.597656 155.757812 C 103.597656 144.765625 103.597656 133.769531 103.597656 122.777344 C 103.597656 113.773438 103.597656 104.746094 103.597656 95.742188 C 103.597656 92.859375 103.597656 89.980469 103.597656 87.121094 C 103.597656 86.269531 103.597656 85.421875 103.597656 84.59375 C 103.597656 84.371094 103.460938 83.542969 103.597656 83.367188 C 103.773438 83.140625 104.714844 83.277344 105.046875 83.277344 C 106.8125 83.277344 108.601562 83.277344 110.367188 83.277344 C 117.089844 83.277344 123.816406 83.277344 130.5625 83.277344 C 140.214844 83.277344 149.867188 83.277344 159.519531 83.277344 C 170.46875 83.277344 181.4375 83.277344 192.386719 83.277344 C 203.179688 83.277344 213.972656 83.277344 224.742188 83.277344 C 233.746094 83.277344 242.75 83.277344 251.753906 83.277344 C 257.382812 83.277344 263.015625 83.277344 268.644531 83.277344 C 269.316406 83.277344 271.28125 82.917969 271.882812 83.277344 C 272.398438 83.589844 272.0625 86.089844 272.0625 86.761719 C 272.0625 96.527344 272.0625 106.265625 272.0625 116.03125 C 272.0625 120.453125 272.0625 124.902344 272.0625 129.324219 C 272.0625 130.441406 271.929688 131.671875 272.0625 132.789062 C 272.085938 132.921875 271.996094 133.214844 272.0625 133.347656 C 272.285156 133.75 274.097656 134.328125 274.566406 134.621094 C 275.480469 135.179688 276.351562 135.847656 277.15625 136.5625 C 277.15625 134.351562 277.15625 132.140625 277.15625 129.929688 C 277.15625 120.367188 277.15625 110.804688 277.15625 101.261719 C 277.15625 95.273438 277.15625 89.285156 277.15625 83.296875 C 277.15625 77.445312 270.902344 78.203125 266.992188 78.203125 C 260.757812 78.203125 254.5 78.203125 248.265625 78.203125 C 238.949219 78.203125 229.632812 78.203125 220.292969 78.203125 C 209.390625 78.203125 198.464844 78.203125 187.5625 78.203125 C 176.703125 78.203125 165.84375 78.203125 154.984375 78.203125 C 145.667969 78.203125 136.328125 78.203125 127.011719 78.203125 C 120.84375 78.203125 114.65625 78.203125 108.488281 78.203125 C 104.46875 78.203125 98.726562 77.511719 98.523438 83.320312 C 98.390625 87.230469 98.523438 91.164062 98.523438 95.074219 C 98.523438 103.945312 98.523438 112.878906 98.523438 121.816406 Z M 98.523438 121.816406 " fill-opacity="1" fill-rule="nonzero"/><path fill="#ffffff" d="M 266.96875 132.117188 C 266.96875 125.929688 266.96875 119.738281 266.96875 113.550781 C 266.96875 105.53125 266.96875 97.507812 266.96875 89.511719 C 266.96875 88.527344 267.257812 88.304688 266.453125 88.191406 C 265.316406 88.035156 264.019531 88.191406 262.878906 88.191406 C 257.652344 88.191406 252.445312 88.191406 247.21875 88.191406 C 239.242188 88.191406 231.265625 88.191406 223.308594 88.191406 C 213.859375 88.191406 204.40625 88.191406 194.980469 88.191406 C 185.191406 88.191406 175.40625 88.191406 165.621094 88.191406 C 156.773438 88.191406 147.925781 88.191406 139.078125 88.191406 C 132.394531 88.191406 125.714844 88.191406 119.035156 88.191406 C 115.75 88.191406 112.464844 88.191406 109.183594 88.191406 C 109.027344 88.191406 108.890625 88.191406 108.734375 88.191406 C 108.734375 98.15625 108.734375 108.144531 108.734375 118.109375 C 108.734375 136.386719 108.734375 154.664062 108.734375 172.9375 C 108.734375 179.730469 108.734375 186.523438 108.734375 193.316406 C 108.734375 195.171875 108.734375 197.023438 108.734375 198.878906 C 108.734375 199.214844 108.601562 200.175781 108.824219 200.355469 C 109.183594 200.644531 111.015625 200.355469 111.4375 200.355469 C 113.425781 200.355469 115.394531 200.355469 117.382812 200.355469 C 123.90625 200.355469 130.429688 200.355469 136.976562 200.355469 C 155.121094 200.355469 173.285156 200.355469 191.425781 200.355469 C 206.441406 200.355469 221.476562 200.355469 236.492188 200.355469 C 238.414062 200.355469 240.335938 200.355469 242.257812 200.355469 C 242.636719 200.355469 244.359375 200.621094 244.671875 200.355469 C 244.847656 200.199219 244.714844 199.125 244.714844 198.855469 C 244.714844 197.003906 244.714844 195.125 244.714844 193.269531 C 244.714844 189.160156 244.714844 185.070312 244.714844 180.960938 C 244.714844 180.109375 244.960938 179.910156 244.269531 179.753906 C 242.859375 179.417969 240.960938 179.753906 239.507812 179.753906 C 235.398438 179.753906 231.285156 179.753906 227.175781 179.753906 C 225.097656 179.753906 222.976562 179.464844 221.320312 178.121094 C 219.9375 176.984375 219.3125 175.375 218.597656 173.789062 C 217.300781 170.882812 215.914062 168 214.574219 165.117188 C 211.421875 158.347656 208.140625 151.601562 205.125 144.765625 C 204.230469 142.777344 204.164062 140.585938 205.300781 138.664062 C 206.976562 135.804688 210.6875 134.710938 213.65625 136.207031 C 216.429688 137.613281 217.480469 141.1875 218.707031 143.824219 C 220.605469 147.914062 222.507812 151.980469 224.382812 156.070312 C 225.140625 157.699219 225.878906 159.308594 226.640625 160.941406 C 226.816406 161.320312 227.109375 162.480469 227.464844 162.707031 C 227.914062 162.972656 229.386719 162.707031 229.878906 162.707031 C 231.6875 162.707031 233.5 162.707031 235.332031 162.707031 C 239.890625 162.707031 244.445312 162.707031 249.003906 162.707031 C 251.285156 162.707031 253.585938 162.707031 255.863281 162.707031 C 249.542969 158.082031 247.171875 149.480469 250.324219 142.285156 C 253.09375 135.761719 259.886719 131.625 266.96875 132.117188 Z M 199.605469 133.792969 C 199.605469 134.910156 199.605469 136.050781 199.605469 137.167969 C 191.894531 137.167969 184.210938 137.167969 176.5 137.167969 C 165.597656 137.167969 154.695312 137.167969 143.792969 137.167969 C 142.875 137.167969 141.3125 137.480469 140.441406 137.167969 C 140.238281 137.101562 140.195312 137.210938 140.082031 137.078125 C 139.925781 136.878906 140.082031 135.828125 140.082031 135.582031 C 140.082031 134.777344 140.082031 133.949219 140.082031 133.144531 C 140.082031 131.894531 140.015625 132.074219 141.15625 132.074219 C 142.585938 132.074219 144.015625 132.074219 145.445312 132.074219 C 156.796875 132.074219 168.144531 132.074219 179.496094 132.074219 C 184.5 132.074219 189.527344 132.074219 194.53125 132.074219 C 195.917969 132.074219 197.304688 132.074219 198.6875 132.074219 C 200.007812 132.097656 199.605469 132.386719 199.605469 133.792969 Z M 230.773438 113.035156 C 230.773438 113.753906 230.773438 114.445312 230.773438 115.160156 C 219.558594 115.160156 208.363281 115.160156 197.148438 115.160156 C 180.546875 115.160156 163.96875 115.160156 147.367188 115.160156 C 145.378906 115.160156 143.390625 115.160156 141.402344 115.160156 C 141.175781 115.160156 140.351562 115.292969 140.171875 115.160156 C 139.792969 114.871094 140.082031 112.746094 140.082031 112.1875 C 140.082031 111.585938 139.8125 110.3125 140.285156 110.066406 C 140.550781 109.929688 141.332031 110.066406 141.644531 110.066406 C 143.769531 110.066406 145.914062 110.066406 148.035156 110.066406 C 164.683594 110.066406 181.328125 110.066406 197.972656 110.066406 C 205.792969 110.066406 213.589844 110.066406 221.410156 110.066406 C 223.734375 110.066406 226.082031 110.066406 228.40625 110.066406 C 229.007812 110.066406 230.460938 109.84375 230.773438 110.246094 C 231.085938 110.644531 230.773438 112.523438 230.773438 113.035156 Z M 230.773438 113.035156 " fill-opacity="1" fill-rule="nonzero"/><path fill="#ffffff" d="M 270.609375 165.207031 C 268.800781 165.410156 267.125 165.96875 265.269531 165.902344 C 263.75 165.855469 262.386719 165.363281 260.914062 165.207031 C 260.308594 165.140625 259.640625 165.207031 259.015625 165.207031 C 255.574219 165.207031 252.132812 165.207031 248.691406 165.207031 C 241.566406 165.207031 234.414062 165.320312 227.265625 165.207031 C 226.484375 165.1875 225.925781 165.207031 225.410156 164.402344 C 224.941406 163.667969 224.652344 162.75 224.269531 161.96875 C 222.640625 158.460938 221.007812 154.953125 219.378906 151.421875 C 217.835938 148.117188 216.316406 144.832031 214.773438 141.523438 C 214.417969 140.765625 214.105469 139.871094 213.523438 139.246094 C 211.3125 136.808594 207.113281 138.261719 206.910156 141.570312 C 206.777344 143.511719 208.429688 145.925781 209.210938 147.601562 C 210.910156 151.265625 212.609375 154.929688 214.328125 158.617188 C 216.003906 162.238281 217.679688 165.855469 219.355469 169.476562 C 220.203125 171.332031 221.121094 174.300781 222.507812 175.777344 C 224.515625 177.898438 229.03125 177.183594 231.667969 177.183594 C 235.734375 177.183594 239.800781 177.183594 243.84375 177.183594 C 244.601562 177.183594 245.875 176.9375 246.589844 177.363281 C 247.441406 177.875 247.195312 179.285156 247.195312 180.179688 C 247.195312 183.417969 247.195312 186.679688 247.195312 189.917969 C 247.195312 196.308594 247.195312 202.722656 247.195312 209.113281 C 255.597656 207.234375 264.398438 211.546875 268.128906 219.257812 C 271.726562 226.695312 269.894531 235.855469 263.730469 241.375 C 266.097656 241.421875 268.464844 242 270.609375 243.050781 C 272.6875 244.078125 274.519531 245.53125 275.996094 247.296875 C 277.605469 249.242188 278.320312 251.316406 279.257812 253.621094 C 279.570312 254.378906 279.613281 254.199219 280.484375 254.199219 C 281.269531 254.199219 282.074219 254.199219 282.855469 254.199219 C 283.234375 254.199219 283.992188 254.355469 284.171875 254.089844 C 284.464844 253.664062 284.171875 251.921875 284.171875 251.40625 C 284.171875 249.574219 284.171875 247.742188 284.171875 245.910156 C 284.171875 233.355469 284.171875 220.820312 284.171875 208.261719 C 284.171875 198.609375 284.171875 188.9375 284.171875 179.285156 C 284.171875 179.148438 284.082031 178.613281 284.171875 178.503906 C 284.285156 178.367188 286.40625 178.300781 286.585938 178.457031 C 286.964844 178.75 286.71875 180.3125 286.71875 180.894531 C 286.71875 186.277344 286.71875 191.664062 286.71875 197.070312 C 286.71875 206.945312 286.71875 216.796875 286.71875 226.675781 C 290.339844 226.449219 293.871094 224.820312 295.097656 221.199219 C 295.566406 219.816406 295.613281 218.382812 295.613281 216.953125 C 295.613281 204.351562 295.613281 191.773438 295.613281 179.171875 C 295.613281 176.246094 294.675781 173.363281 292.953125 170.996094 C 289.960938 166.863281 285.402344 165.207031 280.464844 165.207031 C 277.246094 165.207031 273.828125 164.871094 270.609375 165.207031 Z M 270.609375 165.207031 " fill-opacity="1" fill-rule="nonzero"/><path fill="#ffffff" d="M 271.035156 135.625 C 264.464844 133.035156 256.757812 135.761719 253.273438 141.90625 C 250.121094 147.46875 251.105469 154.640625 255.617188 159.152344 C 259.730469 163.265625 266.074219 164.492188 271.4375 162.214844 C 276.664062 159.980469 280.152344 154.683594 280.152344 149.007812 C 280.128906 143.15625 276.441406 137.769531 271.035156 135.625 Z M 271.035156 135.625 " fill-opacity="1" fill-rule="nonzero"/><g clip-path="url(#639b10ed4f)"><path fill="#ffffff" d="M 78.863281 263.898438 C 78.863281 265.105469 78.863281 266.308594 78.863281 267.515625 C 78.863281 267.742188 78.726562 268.65625 78.882812 268.8125 C 79.042969 268.96875 80.160156 268.8125 80.359375 268.8125 C 81.453125 268.8125 82.550781 268.8125 83.644531 268.8125 C 86.324219 268.8125 89.027344 268.8125 91.710938 268.8125 C 92.738281 268.8125 93.742188 268.8125 94.769531 268.8125 C 94.925781 268.8125 95.753906 268.925781 95.886719 268.8125 C 96.089844 268.613281 95.886719 267.160156 95.886719 266.890625 C 95.886719 265.617188 95.886719 264.320312 95.886719 263.046875 C 95.886719 260.96875 95.796875 258.847656 95.933594 256.769531 C 91.171875 256.769531 86.414062 256.769531 81.65625 256.769531 C 80.984375 256.769531 79.957031 256.570312 79.308594 256.769531 C 78.75 256.949219 79.0625 256.589844 78.882812 257.128906 C 78.617188 257.84375 78.882812 259.183594 78.882812 259.941406 C 78.863281 261.238281 78.863281 262.578125 78.863281 263.898438 Z M 78.863281 263.898438 " fill-opacity="1" fill-rule="nonzero"/></g><path fill="#ffffff" d="M 153.175781 268.8125 C 153.464844 268.992188 154.402344 268.8125 154.761719 268.8125 C 155.410156 268.8125 156.035156 268.8125 156.683594 268.8125 C 157.0625 268.8125 159.03125 269.082031 159.320312 268.8125 C 159.5 268.632812 159.320312 267.25 159.320312 266.980469 C 159.320312 265.664062 159.320312 264.34375 159.320312 263.027344 C 159.320312 260.949219 159.230469 258.824219 159.363281 256.746094 C 157.21875 256.746094 155.074219 256.746094 152.929688 256.746094 C 153.085938 259.207031 152.972656 261.707031 152.972656 264.164062 C 152.929688 265.082031 152.484375 268.410156 153.175781 268.8125 Z M 153.175781 268.8125 " fill-opacity="1" fill-rule="nonzero"/><path fill="#ffffff" d="M 216.605469 268.8125 C 216.898438 268.992188 217.835938 268.8125 218.195312 268.8125 C 218.839844 268.8125 219.46875 268.8125 220.117188 268.8125 C 220.496094 268.8125 222.460938 269.082031 222.75 268.8125 C 222.929688 268.632812 222.75 267.25 222.75 266.980469 C 222.75 265.664062 222.75 264.34375 222.75 263.027344 C 222.75 260.949219 222.664062 258.824219 222.796875 256.746094 C 220.652344 256.746094 218.507812 256.746094 216.363281 256.746094 C 216.519531 259.207031 216.40625 261.707031 216.40625 264.164062 C 216.363281 265.082031 215.914062 268.410156 216.605469 268.8125 Z M 216.605469 268.8125 " fill-opacity="1" fill-rule="nonzero"/><g clip-path="url(#57de93ef1a)"><path fill="#ffffff" d="M 296.125 256.746094 C 290.675781 256.746094 285.222656 256.746094 279.769531 256.746094 C 279.996094 260.210938 279.816406 263.71875 279.816406 267.183594 C 279.816406 267.425781 279.660156 268.523438 279.816406 268.703125 C 279.925781 268.835938 279.90625 268.703125 280.128906 268.789062 C 281 269.125 282.71875 268.789062 283.636719 268.789062 C 287.1875 268.789062 290.742188 268.789062 294.292969 268.789062 C 294.605469 268.789062 295.949219 268.96875 296.148438 268.746094 C 296.28125 268.589844 296.148438 267.695312 296.148438 267.496094 C 296.148438 266.734375 296.148438 265.996094 296.148438 265.238281 C 296.125 262.421875 296.125 259.585938 296.125 256.746094 Z M 296.125 256.746094 " fill-opacity="1" fill-rule="nonzero"/></g><path fill="#ffffff" d="M 98.457031 282.734375 C 98.546875 282.820312 99.082031 282.734375 99.195312 282.734375 C 100.734375 282.734375 102.253906 282.734375 103.796875 282.734375 C 109.496094 282.734375 115.167969 282.734375 120.867188 282.734375 C 127.144531 282.734375 133.402344 282.734375 139.679688 282.734375 C 142.003906 282.734375 144.304688 282.734375 146.628906 282.734375 C 147.386719 282.734375 148.148438 282.734375 148.90625 282.734375 C 149.199219 282.734375 149.914062 282.867188 150.160156 282.734375 C 150.605469 282.507812 150.382812 280.5 150.382812 279.941406 C 150.382812 277.167969 150.382812 274.375 150.382812 271.605469 C 150.382812 267.003906 150.382812 262.421875 150.382812 257.820312 C 150.382812 255.40625 149.757812 253.015625 148.550781 250.9375 C 146.25 246.917969 141.960938 244.234375 137.3125 243.96875 C 136.082031 243.902344 134.5625 243.722656 133.355469 243.945312 C 132.328125 244.125 131.210938 244.929688 130.183594 245.242188 C 128.957031 245.644531 127.683594 245.910156 126.386719 246.046875 C 123.527344 246.335938 120.621094 246 117.941406 244.996094 C 117.003906 244.636719 116.128906 244.058594 115.148438 243.921875 C 114.5 243.832031 113.808594 243.921875 113.160156 243.921875 C 108.9375 243.921875 105.003906 245.242188 102.097656 248.414062 C 97.855469 253.039062 98.433594 258.914062 98.433594 264.679688 C 98.433594 270.21875 98.433594 275.761719 98.433594 281.28125 C 98.414062 281.546875 98.34375 282.621094 98.457031 282.734375 Z M 98.457031 282.734375 " fill-opacity="1" fill-rule="nonzero"/><path fill="#ffffff" d="M 125.984375 211.300781 C 118.835938 210.609375 111.90625 214.855469 109.316406 221.558594 C 106.703125 228.261719 108.957031 236.082031 114.699219 240.371094 C 119.214844 243.742188 125.335938 244.527344 130.5625 242.382812 C 136.574219 239.921875 140.597656 233.890625 140.597656 227.410156 C 140.597656 219.1875 134.160156 212.105469 125.984375 211.300781 Z M 125.984375 211.300781 " fill-opacity="1" fill-rule="nonzero"/><path fill="#ffffff" d="M 161.890625 282.734375 C 161.980469 282.820312 162.515625 282.734375 162.625 282.734375 C 164.167969 282.734375 165.6875 282.734375 167.230469 282.734375 C 172.925781 282.734375 178.601562 282.734375 184.300781 282.734375 C 190.578125 282.734375 196.832031 282.734375 203.113281 282.734375 C 205.4375 282.734375 207.738281 282.734375 210.0625 282.734375 C 210.820312 282.734375 211.582031 282.734375 212.339844 282.734375 C 212.628906 282.734375 213.34375 282.867188 213.589844 282.734375 C 214.039062 282.507812 213.816406 280.5 213.816406 279.941406 C 213.816406 277.167969 213.816406 274.375 213.816406 271.605469 C 213.816406 267.003906 213.816406 262.421875 213.816406 257.820312 C 213.816406 255.40625 213.1875 253.015625 211.980469 250.9375 C 209.679688 246.917969 205.390625 244.234375 200.742188 243.96875 C 199.515625 243.902344 197.996094 243.722656 196.789062 243.945312 C 195.761719 244.125 194.644531 244.929688 193.617188 245.242188 C 192.386719 245.644531 191.113281 245.910156 189.816406 246.046875 C 186.957031 246.335938 184.054688 246 181.371094 244.996094 C 180.433594 244.636719 179.5625 244.058594 178.578125 243.921875 C 177.929688 243.832031 177.238281 243.921875 176.589844 243.921875 C 172.367188 243.921875 168.4375 245.242188 165.53125 248.414062 C 161.285156 253.039062 161.867188 258.914062 161.867188 264.679688 C 161.867188 270.21875 161.867188 275.761719 161.867188 281.28125 C 161.84375 281.546875 161.777344 282.621094 161.890625 282.734375 Z M 161.890625 282.734375 " fill-opacity="1" fill-rule="nonzero"/><path fill="#ffffff" d="M 180.300781 241.753906 C 190.890625 247.339844 204.027344 239.386719 204.027344 227.433594 C 204.027344 217.914062 195.515625 210.296875 186.0625 211.347656 C 177.753906 212.261719 171.386719 219.636719 171.652344 227.992188 C 171.855469 233.734375 175.207031 239.050781 180.300781 241.753906 Z M 180.300781 241.753906 " fill-opacity="1" fill-rule="nonzero"/><path fill="#ffffff" d="M 225.320312 282.734375 C 225.410156 282.820312 225.945312 282.734375 226.058594 282.734375 C 227.601562 282.734375 229.121094 282.734375 230.660156 282.734375 C 236.359375 282.734375 242.035156 282.734375 247.730469 282.734375 C 254.007812 282.734375 260.265625 282.734375 266.542969 282.734375 C 268.867188 282.734375 271.167969 282.734375 273.492188 282.734375 C 274.253906 282.734375 275.011719 282.734375 275.773438 282.734375 C 276.0625 282.734375 276.777344 282.867188 277.023438 282.734375 C 277.46875 282.507812 277.246094 280.5 277.246094 279.941406 C 277.246094 277.167969 277.246094 274.375 277.246094 271.605469 C 277.246094 267.003906 277.246094 262.421875 277.246094 257.820312 C 277.246094 255.40625 276.621094 253.015625 275.414062 250.9375 C 273.113281 246.917969 268.824219 244.234375 264.175781 243.96875 C 262.945312 243.902344 261.425781 243.722656 260.222656 243.945312 C 259.191406 244.125 258.074219 244.929688 257.046875 245.242188 C 255.820312 245.644531 254.546875 245.910156 253.25 246.046875 C 250.414062 246.335938 247.53125 246 244.847656 245.019531 C 243.886719 244.660156 242.996094 244.058594 241.988281 243.921875 C 241.339844 243.832031 240.648438 243.921875 240 243.921875 C 235.777344 243.921875 231.84375 245.242188 228.941406 248.414062 C 224.695312 253.039062 225.277344 258.914062 225.277344 264.679688 C 225.277344 270.21875 225.277344 275.761719 225.277344 281.28125 C 225.277344 281.546875 225.210938 282.621094 225.320312 282.734375 Z M 225.320312 282.734375 " fill-opacity="1" fill-rule="nonzero"/><path fill="#ffffff" d="M 257.429688 242.382812 C 263.417969 239.921875 267.460938 233.890625 267.460938 227.410156 C 267.460938 217.714844 258.632812 210.050781 249.050781 211.367188 C 242.59375 212.261719 237.140625 217.132812 235.578125 223.480469 C 233.945312 230.027344 236.648438 237.042969 242.210938 240.816406 C 246.636719 243.832031 252.445312 244.4375 257.429688 242.382812 Z M 257.429688 242.382812 " fill-opacity="1" fill-rule="nonzero"/><g clip-path="url(#a5c07fb56b)"><path fill="#ffffff" d="M 296.125 294.53125 C 296.125 293.210938 296.125 291.914062 296.125 290.597656 C 296.125 288.832031 296.125 287.046875 296.125 285.28125 C 295.613281 285.28125 295.078125 285.28125 294.5625 285.28125 C 290.519531 285.28125 286.453125 285.28125 282.40625 285.28125 C 275.144531 285.28125 267.882812 285.28125 260.625 285.28125 C 251.148438 285.28125 241.675781 285.28125 232.179688 285.28125 C 221.367188 285.28125 210.550781 285.28125 199.714844 285.28125 C 188.589844 285.28125 177.484375 285.28125 166.359375 285.28125 C 155.789062 285.28125 145.222656 285.28125 134.675781 285.28125 C 125.671875 285.28125 116.667969 285.28125 107.664062 285.28125 C 101.183594 285.28125 94.679688 285.28125 88.203125 285.28125 C 86.191406 285.28125 84.203125 285.28125 82.191406 285.28125 C 81.363281 285.28125 79.933594 284.988281 79.152344 285.28125 C 78.839844 285.390625 78.972656 285.191406 78.839844 285.414062 C 78.570312 285.792969 78.839844 287.359375 78.839844 287.828125 C 78.839844 289.121094 78.839844 290.417969 78.839844 291.714844 C 78.839844 292.988281 78.839844 294.261719 78.839844 295.535156 C 78.839844 295.78125 78.660156 297.121094 78.839844 297.300781 C 78.90625 297.367188 79.152344 297.277344 79.242188 297.300781 C 80.160156 297.546875 81.519531 297.300781 82.460938 297.300781 C 84.515625 297.300781 86.570312 297.300781 88.625 297.300781 C 95.171875 297.300781 101.71875 297.300781 108.242188 297.300781 C 117.292969 297.300781 126.363281 297.300781 135.414062 297.300781 C 146.003906 297.300781 156.59375 297.300781 167.183594 297.300781 C 178.3125 297.300781 189.4375 297.300781 200.566406 297.300781 C 211.355469 297.300781 222.148438 297.300781 232.960938 297.300781 C 242.4375 297.300781 251.910156 297.300781 261.359375 297.300781 C 268.511719 297.300781 275.683594 297.300781 282.832031 297.300781 C 286.785156 297.300781 290.742188 297.300781 294.695312 297.300781 C 295.234375 297.300781 295.902344 297.457031 296.105469 297.097656 C 296.417969 296.628906 296.125 295.109375 296.125 294.53125 Z M 296.125 294.53125 " fill-opacity="1" fill-rule="nonzero"/></g></svg>