<svg xmlns="http://www.w3.org/2000/svg" xmlns:xlink="http://www.w3.org/1999/xlink" width="500" zoomAndPan="magnify" viewBox="0 0 375 374.999991" height="500" preserveAspectRatio="xMidYMid meet" version="1.0"><defs><clipPath id="68d49fdca3"><path d="M 112.5 256.945312 L 117.75 256.945312 L 117.75 262.195312 L 112.5 262.195312 Z M 112.5 256.945312 " clip-rule="nonzero"/></clipPath><clipPath id="023d8982d9"><path d="M 103 155 L 272.238281 155 L 272.238281 313.976562 L 103 313.976562 Z M 103 155 " clip-rule="nonzero"/></clipPath></defs><g clip-path="url(#68d49fdca3)"><path fill="#20e5f6" d="M 112.824219 261.449219 C 112.824219 261.410156 112.792969 261.378906 112.753906 261.378906 C 112.714844 261.378906 112.683594 261.410156 112.683594 261.449219 C 112.683594 261.484375 112.710938 261.511719 112.742188 261.515625 L 112.742188 261.875 C 112.742188 261.878906 112.742188 261.882812 112.746094 261.882812 L 113 262.136719 C 113 262.140625 113.003906 262.140625 113.007812 262.140625 L 114.417969 262.140625 C 114.421875 262.140625 114.425781 262.136719 114.425781 262.136719 L 114.859375 261.703125 L 116.09375 261.703125 C 116.097656 261.722656 116.117188 261.738281 116.136719 261.738281 C 116.164062 261.738281 116.183594 261.71875 116.183594 261.691406 C 116.183594 261.667969 116.164062 261.644531 116.136719 261.644531 C 116.117188 261.644531 116.097656 261.660156 116.09375 261.679688 L 114.855469 261.679688 C 114.851562 261.679688 114.847656 261.679688 114.847656 261.683594 C 114.847656 261.683594 114.84375 261.683594 114.84375 261.683594 L 114.414062 262.117188 L 113.011719 262.117188 L 112.765625 261.871094 L 112.765625 261.519531 C 112.800781 261.511719 112.824219 261.484375 112.824219 261.449219 M 115.382812 261.574219 C 115.421875 261.574219 115.453125 261.542969 115.453125 261.503906 C 115.453125 261.46875 115.421875 261.433594 115.382812 261.433594 C 115.351562 261.433594 115.320312 261.460938 115.316406 261.492188 L 114.375 261.492188 C 114.371094 261.492188 114.367188 261.496094 114.367188 261.496094 L 113.945312 261.917969 L 113.183594 261.917969 L 112.988281 261.71875 L 112.988281 261.148438 L 113.746094 260.457031 C 113.746094 260.453125 113.75 260.449219 113.75 260.449219 L 113.75 259.488281 C 113.769531 259.484375 113.785156 259.464844 113.785156 259.445312 C 113.785156 259.417969 113.761719 259.394531 113.738281 259.394531 C 113.710938 259.394531 113.6875 259.417969 113.6875 259.445312 C 113.6875 259.464844 113.703125 259.484375 113.722656 259.488281 L 113.722656 260.441406 L 112.96875 261.132812 C 112.96875 261.132812 112.964844 261.136719 112.964844 261.140625 C 112.964844 261.140625 112.964844 261.140625 112.964844 261.144531 L 112.964844 261.722656 C 112.964844 261.726562 112.964844 261.726562 112.964844 261.730469 C 112.96875 261.730469 112.96875 261.730469 112.96875 261.734375 L 113.171875 261.9375 C 113.175781 261.9375 113.175781 261.941406 113.179688 261.941406 L 113.949219 261.941406 C 113.953125 261.941406 113.957031 261.941406 113.957031 261.9375 C 113.960938 261.9375 113.960938 261.9375 113.960938 261.9375 L 114.378906 261.515625 L 115.316406 261.515625 C 115.320312 261.550781 115.351562 261.574219 115.382812 261.574219 Z M 113.566406 259.929688 C 113.601562 259.949219 113.640625 259.9375 113.660156 259.902344 C 113.679688 259.871094 113.667969 259.828125 113.636719 259.808594 C 113.605469 259.789062 113.570312 259.796875 113.546875 259.824219 L 113.511719 259.800781 L 113.511719 259.316406 C 113.53125 259.3125 113.546875 259.292969 113.546875 259.269531 C 113.546875 259.246094 113.523438 259.222656 113.5 259.222656 C 113.472656 259.222656 113.453125 259.246094 113.453125 259.269531 C 113.453125 259.292969 113.464844 259.3125 113.488281 259.316406 L 113.488281 259.808594 C 113.488281 259.8125 113.488281 259.816406 113.492188 259.816406 C 113.492188 259.816406 113.492188 259.820312 113.492188 259.820312 L 113.535156 259.84375 C 113.523438 259.875 113.535156 259.910156 113.566406 259.929688 Z M 113.171875 261.640625 C 113.171875 261.679688 113.203125 261.710938 113.242188 261.710938 C 113.28125 261.710938 113.3125 261.679688 113.3125 261.640625 C 113.3125 261.605469 113.285156 261.578125 113.253906 261.570312 L 113.253906 261.226562 L 114.03125 260.449219 C 114.035156 260.445312 114.035156 260.441406 114.035156 260.4375 L 114.035156 260.136719 C 114.054688 260.132812 114.070312 260.113281 114.070312 260.089844 C 114.070312 260.066406 114.050781 260.042969 114.023438 260.042969 C 113.996094 260.042969 113.976562 260.066406 113.976562 260.089844 C 113.976562 260.113281 113.992188 260.132812 114.011719 260.136719 L 114.011719 260.433594 L 113.234375 261.210938 C 113.230469 261.214844 113.230469 261.214844 113.230469 261.21875 C 113.230469 261.21875 113.230469 261.21875 113.230469 261.222656 L 113.230469 261.570312 C 113.195312 261.578125 113.171875 261.605469 113.171875 261.640625 Z M 112.800781 260.433594 C 112.800781 260.472656 112.832031 260.503906 112.871094 260.503906 C 112.910156 260.503906 112.941406 260.472656 112.941406 260.433594 C 112.941406 260.402344 112.917969 260.371094 112.882812 260.367188 L 112.882812 257.035156 C 112.902344 257.03125 112.917969 257.011719 112.917969 256.992188 C 112.917969 256.964844 112.898438 256.945312 112.871094 256.945312 C 112.847656 256.945312 112.824219 256.964844 112.824219 256.992188 C 112.824219 257.011719 112.839844 257.03125 112.859375 257.035156 L 112.859375 260.367188 C 112.828125 260.371094 112.800781 260.402344 112.800781 260.433594 Z M 114.960938 261.839844 C 114.921875 261.839844 114.890625 261.871094 114.890625 261.910156 C 114.890625 261.949219 114.921875 261.980469 114.960938 261.980469 C 114.996094 261.980469 115.027344 261.953125 115.03125 261.921875 L 117.65625 261.921875 C 117.660156 261.941406 117.679688 261.957031 117.703125 261.957031 C 117.726562 261.957031 117.75 261.9375 117.75 261.910156 C 117.75 261.882812 117.726562 261.863281 117.703125 261.863281 C 117.679688 261.863281 117.660156 261.878906 117.65625 261.898438 L 115.03125 261.898438 C 115.027344 261.863281 114.996094 261.839844 114.960938 261.839844 Z M 116.074219 261.023438 C 116.054688 260.992188 116.011719 260.980469 115.980469 261 C 115.960938 261.011719 115.949219 261.027344 115.945312 261.046875 L 115.023438 261.046875 C 115.019531 261.046875 115.015625 261.046875 115.011719 261.050781 C 115.011719 261.050781 115.011719 261.054688 115.011719 261.054688 L 114.882812 261.273438 L 114.308594 261.273438 C 114.304688 261.273438 114.300781 261.273438 114.300781 261.277344 C 114.296875 261.277344 114.296875 261.277344 114.296875 261.277344 L 113.875 261.699219 L 113.507812 261.699219 L 113.507812 261.347656 C 113.542969 261.339844 113.566406 261.3125 113.566406 261.277344 C 113.566406 261.238281 113.535156 261.207031 113.496094 261.207031 C 113.457031 261.207031 113.425781 261.238281 113.425781 261.277344 C 113.425781 261.3125 113.453125 261.339844 113.484375 261.347656 L 113.484375 261.710938 C 113.484375 261.71875 113.492188 261.722656 113.496094 261.722656 L 113.878906 261.722656 C 113.882812 261.722656 113.886719 261.722656 113.890625 261.71875 L 114.308594 261.296875 L 114.890625 261.296875 C 114.894531 261.296875 114.898438 261.296875 114.902344 261.292969 L 115.027344 261.070312 L 115.945312 261.070312 C 115.945312 261.078125 115.949219 261.085938 115.953125 261.09375 C 115.96875 261.125 116.007812 261.136719 116.039062 261.125 L 116.207031 261.421875 C 116.210938 261.425781 116.214844 261.425781 116.21875 261.425781 L 116.863281 261.425781 C 116.867188 261.449219 116.886719 261.464844 116.910156 261.464844 C 116.933594 261.464844 116.957031 261.441406 116.957031 261.414062 C 116.957031 261.390625 116.933594 261.367188 116.910156 261.367188 C 116.886719 261.367188 116.867188 261.382812 116.863281 261.402344 L 116.226562 261.402344 L 116.058594 261.113281 C 116.085938 261.09375 116.089844 261.054688 116.074219 261.023438 Z M 112.5 262.125 C 112.5 262.164062 112.53125 262.195312 112.570312 262.195312 C 112.609375 262.195312 112.640625 262.164062 112.640625 262.125 C 112.640625 262.089844 112.613281 262.0625 112.582031 262.054688 L 112.582031 261.054688 L 113.183594 260.539062 C 113.183594 260.535156 113.1875 260.535156 113.1875 260.53125 L 113.1875 259.113281 C 113.199219 259.113281 113.214844 259.105469 113.222656 259.09375 C 113.25 259.070312 113.25 259.03125 113.230469 259.003906 L 113.585938 258.652344 C 113.585938 258.648438 113.585938 258.648438 113.585938 258.644531 L 113.585938 258.035156 C 113.609375 258.03125 113.621094 258.011719 113.621094 257.988281 C 113.621094 257.964844 113.601562 257.941406 113.574219 257.941406 C 113.550781 257.941406 113.527344 257.964844 113.527344 257.988281 C 113.527344 258.011719 113.542969 258.03125 113.5625 258.035156 L 113.5625 258.640625 L 113.214844 258.988281 C 113.1875 258.96875 113.148438 258.972656 113.125 258.996094 C 113.097656 259.023438 113.097656 259.066406 113.125 259.09375 C 113.136719 259.105469 113.148438 259.113281 113.164062 259.113281 L 113.164062 260.523438 L 112.5625 261.039062 C 112.558594 261.042969 112.558594 261.042969 112.558594 261.046875 C 112.558594 261.046875 112.558594 261.050781 112.558594 261.050781 L 112.558594 262.054688 C 112.523438 262.0625 112.5 262.089844 112.5 262.125 Z M 112.5 262.125 " fill-opacity="1" fill-rule="nonzero"/></g><path fill="#ffffff" d="M 200.644531 67.984375 C 201.542969 68.191406 202.429688 68.445312 203.308594 68.742188 C 204.183594 69.039062 205.042969 69.378906 205.882812 69.757812 C 206.726562 70.140625 207.546875 70.5625 208.347656 71.023438 C 209.148438 71.488281 209.925781 71.988281 210.675781 72.523438 C 211.425781 73.0625 212.152344 73.636719 212.847656 74.246094 C 213.542969 74.855469 214.203125 75.496094 214.835938 76.171875 C 215.46875 76.847656 216.066406 77.550781 216.628906 78.28125 C 217.191406 79.015625 217.71875 79.773438 218.207031 80.558594 C 218.695312 81.34375 219.144531 82.152344 219.550781 82.980469 C 219.960938 83.808594 220.328125 84.65625 220.65625 85.519531 C 220.980469 86.386719 221.265625 87.265625 221.503906 88.15625 C 221.742188 89.050781 221.9375 89.953125 222.089844 90.863281 C 222.238281 91.777344 222.34375 92.695312 222.40625 93.617188 C 222.46875 94.539062 222.480469 95.460938 222.453125 96.386719 C 222.421875 97.308594 222.347656 98.230469 222.226562 99.144531 C 222.105469 100.0625 221.941406 100.96875 221.730469 101.871094 C 221.523438 102.769531 221.269531 103.660156 220.972656 104.535156 C 220.675781 105.410156 220.335938 106.269531 219.953125 107.109375 C 219.574219 107.953125 219.152344 108.773438 218.691406 109.574219 C 218.226562 110.375 217.726562 111.152344 217.191406 111.902344 C 216.652344 112.652344 216.078125 113.378906 215.46875 114.070312 C 214.859375 114.765625 214.21875 115.429688 213.542969 116.0625 C 212.867188 116.695312 212.164062 117.292969 211.429688 117.855469 C 210.699219 118.417969 209.9375 118.945312 209.152344 119.433594 C 208.371094 119.921875 207.5625 120.367188 206.734375 120.777344 C 205.90625 121.1875 205.058594 121.554688 204.191406 121.878906 C 203.328125 122.207031 202.449219 122.488281 201.554688 122.726562 C 200.664062 122.96875 199.761719 123.164062 198.847656 123.3125 C 197.9375 123.464844 197.019531 123.570312 196.097656 123.632812 C 195.175781 123.691406 194.25 123.707031 193.328125 123.675781 C 192.402344 123.648438 191.484375 123.570312 190.566406 123.453125 C 189.648438 123.332031 188.742188 123.164062 187.839844 122.957031 C 186.941406 122.746094 186.054688 122.492188 185.179688 122.195312 C 184.300781 121.898438 183.445312 121.558594 182.601562 121.179688 C 181.757812 120.796875 180.9375 120.375 180.136719 119.914062 C 179.335938 119.453125 178.5625 118.953125 177.808594 118.414062 C 177.058594 117.875 176.335938 117.300781 175.640625 116.691406 C 174.945312 116.082031 174.28125 115.441406 173.648438 114.765625 C 173.015625 114.09375 172.417969 113.390625 171.855469 112.65625 C 171.292969 111.921875 170.765625 111.164062 170.277344 110.378906 C 169.789062 109.59375 169.339844 108.789062 168.933594 107.957031 C 168.523438 107.128906 168.15625 106.28125 167.828125 105.417969 C 167.503906 104.550781 167.222656 103.671875 166.980469 102.78125 C 166.742188 101.886719 166.546875 100.984375 166.394531 100.074219 C 166.246094 99.160156 166.140625 98.246094 166.078125 97.324219 C 166.019531 96.398438 166.003906 95.476562 166.03125 94.554688 C 166.0625 93.628906 166.136719 92.710938 166.257812 91.792969 C 166.378906 90.875 166.542969 89.96875 166.753906 89.066406 C 166.964844 88.167969 167.214844 87.28125 167.511719 86.40625 C 167.808594 85.527344 168.148438 84.671875 168.53125 83.828125 C 168.910156 82.988281 169.332031 82.164062 169.796875 81.363281 C 170.257812 80.5625 170.757812 79.789062 171.296875 79.035156 C 171.832031 78.285156 172.40625 77.5625 173.015625 76.867188 C 173.625 76.171875 174.269531 75.507812 174.941406 74.875 C 175.617188 74.242188 176.320312 73.644531 177.054688 73.082031 C 177.785156 72.519531 178.546875 71.996094 179.332031 71.507812 C 180.117188 71.019531 180.921875 70.570312 181.75 70.160156 C 182.582031 69.75 183.425781 69.382812 184.292969 69.058594 C 185.15625 68.734375 186.035156 68.449219 186.929688 68.210938 C 187.820312 67.972656 188.722656 67.777344 189.636719 67.625 C 190.546875 67.472656 191.464844 67.367188 192.386719 67.308594 C 193.308594 67.246094 194.234375 67.230469 195.15625 67.261719 C 196.082031 67.292969 197 67.367188 197.917969 67.488281 C 198.835938 67.609375 199.742188 67.773438 200.644531 67.984375 Z M 200.644531 67.984375 " fill-opacity="1" fill-rule="nonzero"/><path fill="#ffffff" d="M 213.136719 239.367188 L 226.9375 295.644531 C 228.691406 302.800781 235.101562 307.59375 242.160156 307.59375 C 243.394531 307.59375 244.652344 307.449219 245.90625 307.140625 C 254.316406 305.078125 259.464844 296.585938 257.402344 288.171875 L 240.671875 219.949219 C 238.945312 212.910156 232.6875 208 225.4375 208 L 206.214844 208 L 181.734375 239.367188 Z M 213.136719 239.367188 " fill-opacity="1" fill-rule="nonzero"/><path fill="#ffffff" d="M 190.296875 208 L 178.542969 208 C 178.554688 198.945312 179.671875 189.65625 181.136719 180.835938 C 175.117188 177.746094 169.765625 173.417969 165.632812 168.230469 C 159.269531 160.199219 157.070312 152.5 156.324219 148.625 L 156.300781 148.496094 C 155.152344 141.589844 159.785156 135.117188 166.609375 133.980469 C 167.292969 133.867188 167.988281 133.808594 168.675781 133.808594 C 174.757812 133.808594 179.949219 138.164062 181.015625 144.160156 L 181.042969 144.265625 C 181.074219 144.394531 181.15625 144.742188 181.304688 145.203125 C 181.539062 145.96875 182.066406 147.484375 183.027344 149.230469 C 183.996094 150.988281 185.132812 152.539062 186.433594 153.917969 C 189.019531 141.878906 184.265625 128.332031 174.121094 125.800781 C 163.40625 123.132812 147.882812 128.949219 141.5625 147.320312 C 133.023438 172.632812 131.191406 189.109375 134.433594 216.984375 C 137.824219 234.429688 148.609375 238.351562 158.894531 239.003906 C 159.972656 239.238281 161.09375 239.371094 162.242188 239.371094 L 162.242188 239.367188 L 165.820312 239.367188 Z M 190.296875 208 " fill-opacity="1" fill-rule="nonzero"/><g clip-path="url(#023d8982d9)"><path fill="#ffffff" d="M 265.90625 187.140625 L 198.777344 187.140625 C 195.308594 187.140625 192.503906 189.945312 192.503906 193.414062 C 192.503906 196.878906 195.308594 199.6875 198.777344 199.6875 L 199.964844 199.6875 L 163.546875 246.359375 C 152.277344 246.359375 141.667969 246.359375 137.121094 246.359375 C 135.078125 246.351562 133.960938 245.953125 133.226562 245.554688 C 132.160156 244.96875 131.613281 244.167969 131.210938 243.273438 C 131.027344 242.847656 130.910156 242.4375 130.855469 242.183594 C 130.832031 242.058594 130.816406 241.972656 130.8125 241.953125 C 130.8125 241.949219 130.8125 241.949219 130.8125 241.949219 L 130.8125 241.953125 L 130.742188 241.449219 L 115.683594 160.308594 C 115.050781 156.90625 111.777344 154.65625 108.371094 155.285156 C 104.964844 155.921875 102.714844 159.191406 103.347656 162.601562 L 118.378906 243.609375 C 118.535156 244.820312 119.0625 247.773438 121.234375 251.09375 C 122.527344 253.046875 124.496094 255.09375 127.214844 256.570312 C 129.4375 257.789062 132.109375 258.578125 135.101562 258.820312 L 114.171875 308.214844 C 113.363281 310.128906 114.257812 312.335938 116.171875 313.148438 C 116.652344 313.351562 117.148438 313.449219 117.640625 313.449219 C 119.105469 313.449219 120.5 312.585938 121.105469 311.148438 L 143.242188 258.90625 C 152.910156 258.90625 169.039062 258.90625 181.753906 258.90625 L 203.886719 311.148438 C 204.492188 312.585938 205.886719 313.449219 207.351562 313.449219 C 207.84375 313.449219 208.339844 313.351562 208.820312 313.148438 C 210.734375 312.335938 211.625 310.128906 210.820312 308.214844 L 189.925781 258.90625 C 196.363281 258.90625 200.691406 258.90625 200.691406 258.90625 C 204.160156 258.90625 206.964844 256.097656 206.964844 252.632812 C 206.964844 249.167969 204.160156 246.359375 200.691406 246.359375 C 200.691406 246.359375 187.605469 246.359375 173.097656 246.359375 L 209.515625 199.6875 L 265.90625 199.6875 C 269.371094 199.6875 272.175781 196.878906 272.175781 193.414062 C 272.175781 189.945312 269.371094 187.140625 265.90625 187.140625 Z M 265.90625 187.140625 " fill-opacity="1" fill-rule="nonzero"/></g><path fill="#ffffff" d="M 228.621094 152.601562 L 224.691406 155.722656 L 227.585938 159.355469 C 229.3125 158.9375 231.070312 158.46875 232.867188 157.941406 Z M 228.621094 152.601562 " fill-opacity="1" fill-rule="nonzero"/><path fill="#ffffff" d="M 251.441406 184.949219 L 251.3125 184.632812 L 248.402344 177.480469 L 244.472656 180.601562 L 250.1875 184.632812 L 251.0625 185.25 Z M 251.441406 184.949219 " fill-opacity="1" fill-rule="nonzero"/><path fill="#ffffff" d="M 208.890625 184.480469 C 217.773438 184.476562 227.910156 182.960938 239.582031 179.511719 C 244.894531 177.941406 247.929688 172.355469 246.355469 167.039062 C 244.785156 161.722656 239.203125 158.691406 233.890625 160.261719 C 223.714844 163.265625 215.46875 164.40625 208.890625 164.402344 C 201.308594 164.394531 195.957031 162.9375 191.972656 161.019531 C 186.042969 158.132812 182.8125 154.023438 180.824219 150.4375 C 179.855469 148.65625 179.246094 147.042969 178.914062 145.964844 C 178.742188 145.421875 178.644531 145.015625 178.589844 144.792969 C 178.5625 144.679688 178.550781 144.613281 178.546875 144.597656 C 177.585938 139.195312 172.453125 135.554688 167.023438 136.457031 C 161.554688 137.367188 157.855469 142.535156 158.765625 148.003906 C 158.960938 148.988281 160.394531 157.570312 167.597656 166.667969 C 171.199219 171.183594 176.328125 175.757812 183.230469 179.089844 C 190.101562 182.425781 198.640625 184.480469 208.8125 184.480469 C 208.835938 184.480469 208.863281 184.480469 208.890625 184.480469 Z M 208.890625 184.480469 " fill-opacity="1" fill-rule="nonzero"/></svg>